  0
SECTION
  2
HEADER
  9
$ACADVER
  1
AC1015
  9
$ACADMAINTVER
 70
     6
  9
$DWGCODEPAGE
  3
ANSI_1252
  9
$INSBASE
 10
0.0
 20
0.0
 30
0.0
  9
$EXTMIN
 10
2.3760504826
 20
4.2173710417
 30
0.0
  9
$EXTMAX
 10
27.1882765383
 20
12.1197941362
 30
0.0
  9
$LIMMIN
 10
0.0
 20
0.0
  9
$LIMMAX
 10
12.0
 20
9.0
  9
$ORTHOMODE
 70
     0
  9
$REGENMODE
 70
     1
  9
$FILLMODE
 70
     1
  9
$QTEXTMODE
 70
     0
  9
$MIRRTEXT
 70
     0
  9
$LTSCALE
 40
1.0
  9
$ATTMODE
 70
     1
  9
$TEXTSIZE
 40
0.1377952756
  9
$TRACEWID
 40
0.05
  9
$TEXTSTYLE
  7
Standard
  9
$CLAYER
  8
0
  9
$CELTYPE
  6
ByLayer
  9
$CECOLOR
 62
   256
  9
$CELTSCALE
 40
1.0
  9
$DISPSILH
 70
     0
  9
$DIMSCALE
 40
1.0
  9
$DIMASZ
 40
0.13
  9
$DIMEXO
 40
0.0
  9
$DIMDLI
 40
0.38
  9
$DIMRND
 40
0.0
  9
$DIMDLE
 40
0.0
  9
$DIMEXE
 40
0.0393700787
  9
$DIMTP
 40
0.0
  9
$DIMTM
 40
0.0
  9
$DIMTXT
 40
0.1377952756
  9
$DIMCEN
 40
0.09
  9
$DIMTSZ
 40
0.0
  9
$DIMTOL
 70
     0
  9
$DIMLIM
 70
     0
  9
$DIMTIH
 70
     1
  9
$DIMTOH
 70
     1
  9
$DIMSE1
 70
     0
  9
$DIMSE2
 70
     0
  9
$DIMTAD
 70
     1
  9
$DIMZIN
 70
     1
  9
$DIMBLK
  1

  9
$DIMASO
 70
     1
  9
$DIMSHO
 70
     1
  9
$DIMPOST
  1

  9
$DIMAPOST
  1

  9
$DIMALT
 70
     0
  9
$DIMALTD
 70
     2
  9
$DIMALTF
 40
25.4
  9
$DIMLFAC
 40
1.0
  9
$DIMTOFL
 70
     0
  9
$DIMTVP
 40
0.0
  9
$DIMTIX
 70
     0
  9
$DIMSOXD
 70
     0
  9
$DIMSAH
 70
     0
  9
$DIMBLK1
  1

  9
$DIMBLK2
  1

  9
$DIMSTYLE
  2
Standard
  9
$DIMCLRD
 70
     0
  9
$DIMCLRE
 70
     0
  9
$DIMCLRT
 70
     0
  9
$DIMTFAC
 40
1.0
  9
$DIMGAP
 40
0.06
  9
$DIMJUST
 70
     0
  9
$DIMSD1
 70
     0
  9
$DIMSD2
 70
     0
  9
$DIMTOLJ
 70
     1
  9
$DIMTZIN
 70
     1
  9
$DIMALTZ
 70
     0
  9
$DIMALTTZ
 70
     0
  9
$DIMUPT
 70
     0
  9
$DIMDEC
 70
     2
  9
$DIMTDEC
 70
     2
  9
$DIMALTU
 70
     2
  9
$DIMALTTD
 70
     2
  9
$DIMTXSTY
  7
Standard
  9
$DIMAUNIT
 70
     0
  9
$DIMADEC
 70
     2
  9
$DIMALTRND
 40
0.0
  9
$DIMAZIN
 70
     0
  9
$DIMDSEP
 70
    46
  9
$DIMATFIT
 70
     3
  9
$DIMFRAC
 70
     0
  9
$DIMLDRBLK
  1

  9
$DIMLUNIT
 70
     2
  9
$DIMLWD
 70
    -2
  9
$DIMLWE
 70
    -2
  9
$DIMTMOVE
 70
     0
  9
$LUNITS
 70
     2
  9
$LUPREC
 70
     2
  9
$SKETCHINC
 40
0.1
  9
$FILLETRAD
 40
0.0
  9
$AUNITS
 70
     0
  9
$AUPREC
 70
     2
  9
$MENU
  1
.
  9
$ELEVATION
 40
0.0
  9
$PELEVATION
 40
0.0
  9
$THICKNESS
 40
0.0
  9
$LIMCHECK
 70
     0
  9
$CHAMFERA
 40
0.0
  9
$CHAMFERB
 40
0.0
  9
$CHAMFERC
 40
0.0
  9
$CHAMFERD
 40
0.0
  9
$SKPOLY
 70
     0
  9
$TDCREATE
 40
2461138.71504551
  9
$TDUCREATE
 40
2461138.881712176
  9
$TDUPDATE
 40
2461138.715077361
  9
$TDUUPDATE
 40
2461138.881744028
  9
$TDINDWG
 40
0.0000000116
  9
$TDUSRTIMER
 40
0.0000000116
  9
$USRTIMER
 70
     1
  9
$ANGBASE
 50
0.0
  9
$ANGDIR
 70
     0
  9
$PDMODE
 70
     0
  9
$PDSIZE
 40
-1.0
  9
$PLINEWID
 40
0.0
  9
$SPLFRAME
 70
     0
  9
$SPLINETYPE
 70
     6
  9
$SPLINESEGS
 70
     8
  9
$HANDSEED
  5
14E
  9
$SURFTAB1
 70
     6
  9
$SURFTAB2
 70
     6
  9
$SURFTYPE
 70
     6
  9
$SURFU
 70
     6
  9
$SURFV
 70
     6
  9
$UCSBASE
  2

  9
$UCSNAME
  2

  9
$UCSORG
 10
0.0
 20
0.0
 30
0.0
  9
$UCSXDIR
 10
1.0
 20
0.0
 30
0.0
  9
$UCSYDIR
 10
0.0
 20
1.0
 30
0.0
  9
$UCSORTHOREF
  2

  9
$UCSORTHOVIEW
 70
     0
  9
$UCSORGTOP
 10
0.0
 20
0.0
 30
0.0
  9
$UCSORGBOTTOM
 10
0.0
 20
0.0
 30
0.0
  9
$UCSORGLEFT
 10
0.0
 20
0.0
 30
0.0
  9
$UCSORGRIGHT
 10
0.0
 20
0.0
 30
0.0
  9
$UCSORGFRONT
 10
0.0
 20
0.0
 30
0.0
  9
$UCSORGBACK
 10
0.0
 20
0.0
 30
0.0
  9
$PUCSBASE
  2

  9
$PUCSNAME
  2

  9
$PUCSORG
 10
0.0
 20
0.0
 30
0.0
  9
$PUCSXDIR
 10
1.0
 20
0.0
 30
0.0
  9
$PUCSYDIR
 10
0.0
 20
1.0
 30
0.0
  9
$PUCSORTHOREF
  2

  9
$PUCSORTHOVIEW
 70
     0
  9
$PUCSORGTOP
 10
0.0
 20
0.0
 30
0.0
  9
$PUCSORGBOTTOM
 10
0.0
 20
0.0
 30
0.0
  9
$PUCSORGLEFT
 10
0.0
 20
0.0
 30
0.0
  9
$PUCSORGRIGHT
 10
0.0
 20
0.0
 30
0.0
  9
$PUCSORGFRONT
 10
0.0
 20
0.0
 30
0.0
  9
$PUCSORGBACK
 10
0.0
 20
0.0
 30
0.0
  9
$USERI1
 70
     0
  9
$USERI2
 70
     0
  9
$USERI3
 70
     0
  9
$USERI4
 70
     0
  9
$USERI5
 70
     0
  9
$USERR1
 40
0.0
  9
$USERR2
 40
0.0
  9
$USERR3
 40
0.0
  9
$USERR4
 40
0.0
  9
$USERR5
 40
0.0
  9
$WORLDVIEW
 70
     1
  9
$SHADEDGE
 70
     3
  9
$SHADEDIF
 70
    70
  9
$TILEMODE
 70
     1
  9
$MAXACTVP
 70
    64
  9
$PINSBASE
 10
0.0
 20
0.0
 30
0.0
  9
$PLIMCHECK
 70
     0
  9
$PEXTMIN
 10
1.0000000000E+20
 20
1.0000000000E+20
 30
1.0000000000E+20
  9
$PEXTMAX
 10
-1.0000000000E+20
 20
-1.0000000000E+20
 30
-1.0000000000E+20
  9
$PLIMMIN
 10
0.0
 20
0.0
  9
$PLIMMAX
 10
12.0
 20
9.0
  9
$UNITMODE
 70
     0
  9
$VISRETAIN
 70
     1
  9
$PLINEGEN
 70
     0
  9
$PSLTSCALE
 70
     1
  9
$TREEDEPTH
 70
  3020
  9
$CMLSTYLE
  2
Standard
  9
$CMLJUST
 70
     0
  9
$CMLSCALE
 40
1.0
  9
$PROXYGRAPHICS
 70
     1
  9
$MEASUREMENT
 70
     0
  9
$CELWEIGHT
370
    -1
  9
$ENDCAPS
280
     0
  9
$JOINSTYLE
280
     0
  9
$LWDISPLAY
290
     1
  9
$INSUNITS
 70
     1
  9
$HYPERLINKBASE
  1

  9
$STYLESHEET
  1

  9
$XEDIT
290
     1
  9
$CEPSNTYPE
380
     0
  9
$PSTYLEMODE
290
     1
  9
$FINGERPRINTGUID
  2
{e255b776-ec69-422e-9b75-ad854f53e98e}
  9
$VERSIONGUID
  2
{FAEB1C32-E019-11D5-929B-00C0DF256EC4}
  9
$EXTNAMES
290
     1
  9
$PSVPSCALE
 40
0.0
  9
$OLESTARTUP
290
     0
  0
ENDSEC
  0
SECTION
  2
CLASSES
  0
CLASS
  1
ACDBDICTIONARYWDFLT
  2
AcDbDictionaryWithDefault
  3
ObjectDBX Classes
 90
        0
280
     0
281
     0
  0
CLASS
  1
VISUALSTYLE
  2
AcDbVisualStyle
  3
ObjectDBX Classes
 90
     4095
280
     0
281
     0
  0
CLASS
  1
MATERIAL
  2
AcDbMaterial
  3
ObjectDBX Classes
 90
     1153
280
     0
281
     0
  0
CLASS
  1
SCALE
  2
AcDbScale
  3
ObjectDBX Classes
 90
     1153
280
     0
281
     0
  0
CLASS
  1
TABLESTYLE
  2
AcDbTableStyle
  3
ObjectDBX Classes
 90
     4095
280
     0
281
     0
  0
CLASS
  1
MLEADERSTYLE
  2
AcDbMLeaderStyle
  3
ACDB_MLEADERSTYLE_CLASS
 90
     4095
280
     0
281
     0
  0
CLASS
  1
SUN
  2
AcDbSun
  3
SCENEOE
 90
     1153
280
     0
281
     0
  0
CLASS
  1
ACDBPLACEHOLDER
  2
AcDbPlaceHolder
  3
ObjectDBX Classes
 90
        0
280
     0
281
     0
  0
CLASS
  1
LAYOUT
  2
AcDbLayout
  3
ObjectDBX Classes
 90
        0
280
     0
281
     0
  0
ENDSEC
  0
SECTION
  2
TABLES
  0
TABLE
  2
VPORT
  5
8
330
0
100
AcDbSymbolTable
 70
     1
  0
VPORT
  5
29
330
8
100
AcDbSymbolTableRecord
100
AcDbViewportTableRecord
  2
*Active
 70
     0
 10
0.0
 20
0.0
 11
1.0
 21
1.0
 12
14.7821635105
 22
8.168582589
 13
0.0
 23
0.0
 14
0.5
 24
0.5
 15
0.5
 25
0.5
 16
0.0
 26
0.0
 36
1.0
 17
0.0
 27
0.0
 37
0.0
 40
8.0604715564
 41
3.1398250586
 42
50.0
 43
0.0
 44
0.0
 50
0.0
 51
0.0
 71
     0
 72
   100
 73
     1
 74
     3
 75
     0
 76
     0
 77
     0
 78
     0
281
     0
 65
     1
110
0.0
120
0.0
130
0.0
111
1.0
121
0.0
131
0.0
112
0.0
122
1.0
132
0.0
 79
     0
146
0.0
  0
ENDTAB
  0
TABLE
  2
LTYPE
  5
5
330
0
100
AcDbSymbolTable
 70
     6
  0
LTYPE
  5
14
330
5
100
AcDbSymbolTableRecord
100
AcDbLinetypeTableRecord
  2
ByBlock
 70
     0
  3

 72
    65
 73
     0
 40
0.0
  0
LTYPE
  5
15
330
5
100
AcDbSymbolTableRecord
100
AcDbLinetypeTableRecord
  2
ByLayer
 70
     0
  3

 72
    65
 73
     0
 40
0.0
  0
LTYPE
  5
16
330
5
100
AcDbSymbolTableRecord
100
AcDbLinetypeTableRecord
  2
Continuous
 70
     0
  3
Solid line
 72
    65
 73
     0
 40
0.0
  0
LTYPE
  5
5E
330
5
100
AcDbSymbolTableRecord
100
AcDbLinetypeTableRecord
  2
HIDDEN
 70
     0
  3
Hidden __ __ __ __ __ __ __ __ __ __ __ __ __ __
 72
    65
 73
     2
 40
0.075
 49
0.05
 74
     0
 49
-0.025
 74
     0
  0
LTYPE
  5
5F
330
5
100
AcDbSymbolTableRecord
100
AcDbLinetypeTableRecord
  2
PHANTOM
 70
     0
  3
Phantom ______  __  __  ______  __  __  ______
 72
    65
 73
     6
 40
0.5
 49
0.25
 74
     0
 49
-0.05
 74
     0
 49
0.05
 74
     0
 49
-0.05
 74
     0
 49
0.05
 74
     0
 49
-0.05
 74
     0
  0
LTYPE
  5
60
330
5
100
AcDbSymbolTableRecord
100
AcDbLinetypeTableRecord
  2
CENTER
 70
     0
  3
Center ____ _ ____ _ ____ _ ____ _ ____ _ ____
 72
    65
 73
     4
 40
0.4
 49
0.25
 74
     0
 49
-0.05
 74
     0
 49
0.05
 74
     0
 49
-0.05
 74
     0
  0
LTYPE
  5
61
330
5
100
AcDbSymbolTableRecord
100
AcDbLinetypeTableRecord
  2
CENTERX2
 70
     0
  3
Center (2x) ________  __  ________  __  _____
 72
    65
 73
     4
 40
0.8
 49
0.5
 74
     0
 49
-0.1
 74
     0
 49
0.1
 74
     0
 49
-0.1
 74
     0
  0
LTYPE
  5
62
330
5
100
AcDbSymbolTableRecord
100
AcDbLinetypeTableRecord
  2
DOT2
 70
     0
  3
Dot (.5x) ........................................
 72
    65
 73
     2
 40
0.025
 49
0.0
 74
     0
 49
-0.025
 74
     0
  0
ENDTAB
  0
TABLE
  2
LAYER
  5
2
330
0
100
AcDbSymbolTable
 70
     1
  0
LAYER
  5
10
330
2
100
AcDbSymbolTableRecord
100
AcDbLayerTableRecord
  2
0
 70
     0
 62
     7
  6
Continuous
370
    -3
390
F
  0
ENDTAB
  0
TABLE
  2
STYLE
  5
3
330
0
100
AcDbSymbolTable
 70
     1
  0
STYLE
  5
11
330
3
100
AcDbSymbolTableRecord
100
AcDbTextStyleTableRecord
  2
Standard
 70
     0
 40
0.0
 41
1.0
 50
0.0
 71
     0
 42
0.1377952756
  3
txt
  4

  0
ENDTAB
  0
TABLE
  2
VIEW
  5
6
330
0
100
AcDbSymbolTable
 70
     0
  0
ENDTAB
  0
TABLE
  2
UCS
  5
7
330
0
100
AcDbSymbolTable
 70
     0
  0
ENDTAB
  0
TABLE
  2
APPID
  5
9
330
0
100
AcDbSymbolTable
 70
     1
  0
APPID
  5
12
330
9
100
AcDbSymbolTableRecord
100
AcDbRegAppTableRecord
  2
ACAD
 70
     0
  0
ENDTAB
  0
TABLE
  2
DIMSTYLE
  5
A
330
0
100
AcDbSymbolTable
 70
     1
100
AcDbDimStyleTable
  0
DIMSTYLE
105
27
330
A
100
AcDbSymbolTableRecord
100
AcDbDimStyleTableRecord
  2
Standard
 70
     0
178
     0
340
11
  0
ENDTAB
  0
TABLE
  2
BLOCK_RECORD
  5
1
330
0
100
AcDbSymbolTable
 70
     1
  0
BLOCK_RECORD
  5
1F
330
1
100
AcDbSymbolTableRecord
100
AcDbBlockTableRecord
  2
*Model_Space
340
22
  0
BLOCK_RECORD
  5
1B
330
1
100
AcDbSymbolTableRecord
100
AcDbBlockTableRecord
  2
*Paper_Space
340
1E
  0
BLOCK_RECORD
  5
23
330
1
100
AcDbSymbolTableRecord
100
AcDbBlockTableRecord
  2
*Paper_Space0
340
26
  0
ENDTAB
  0
ENDSEC
  0
SECTION
  2
BLOCKS
  0
BLOCK
  5
20
330
1F
100
AcDbEntity
  8
0
100
AcDbBlockBegin
  2
*Model_Space
 70
     0
 10
0.0
 20
0.0
 30
0.0
  3
*Model_Space
  1

  0
ENDBLK
  5
21
330
1F
100
AcDbEntity
  8
0
100
AcDbBlockEnd
  0
BLOCK
  5
1C
330
1B
100
AcDbEntity
 67
     1
  8
0
100
AcDbBlockBegin
  2
*Paper_Space
 70
     0
 10
0.0
 20
0.0
 30
0.0
  3
*Paper_Space
  1

  0
ENDBLK
  5
1D
330
1B
100
AcDbEntity
 67
     1
  8
0
100
AcDbBlockEnd
  0
BLOCK
  5
24
330
23
100
AcDbEntity
  8
0
100
AcDbBlockBegin
  2
*Paper_Space0
 70
     0
 10
0.0
 20
0.0
 30
0.0
  3
*Paper_Space0
  1

  0
ENDBLK
  5
25
330
23
100
AcDbEntity
  8
0
100
AcDbBlockEnd
  0
ENDSEC
  0
SECTION
  2
ENTITIES
  0
CIRCLE
  5
63
330
1F
100
AcDbEntity
  8
0
  6
Continuous
 62
     7
100
AcDbCircle
 10
4.516609698
 20
9.9792349208
 30
0.0
 40
2.140559215406395
  0
ARC
  5
64
330
1F
100
AcDbEntity
  8
0
  6
Continuous
 62
     7
100
AcDbCircle
 10
8.2690148845
 20
10.5916254008
 30
0.0
 40
0.4160396946566917
100
AcDbArc
 50
289.9659657503
 51
74.615254335
  0
ARC
  5
65
330
1F
100
AcDbEntity
  8
0
  6
Continuous
 62
     7
100
AcDbCircle
 10
21.9590716982
 20
11.3421445168
 30
0.0
 40
0.6214236893098846
100
AcDbArc
 50
2.5113108985
 51
92.5113108985
  0
ARC
  5
66
330
1F
100
AcDbEntity
  8
0
  6
Continuous
 62
     7
100
AcDbCircle
 10
21.2614744147
 20
11.3332050576
 30
0.0
 40
0.6297663276751564
100
AcDbArc
 50
90.0
 51
180.0
  0
ARC
  5
67
330
1F
100
AcDbEntity
  8
0
  6
Continuous
 62
     7
100
AcDbCircle
 10
21.2655097486
 20
4.9625090413
 30
0.0
 40
0.6338533129895784
100
AcDbArc
 50
179.2685459257
 51
269.2685459257
  0
ARC
  5
68
330
1F
100
AcDbEntity
  8
0
  6
Continuous
 62
     7
100
AcDbCircle
 10
21.9602097083
 20
4.9483963342
 30
0.0
 40
0.6196889546194182
100
AcDbArc
 50
270.0
 51
0.0
  0
ARC
  5
69
330
1F
100
AcDbEntity
  8
0
  6
Continuous
 62
     7
100
AcDbCircle
 10
13.2802441177
 20
15.6374626439
 30
0.0
 40
11.42086055696908
100
AcDbArc
 50
238.8246414115
 51
269.3351233699
  0
ARC
  5
6A
330
1F
100
AcDbEntity
  8
0
  6
Continuous
 62
     7
100
AcDbCircle
 10
14.1344584396
 20
16.4690367325
 30
0.0
 40
12.29133729632719
100
AcDbArc
 50
237.2433287992
 51
265.395369024
  0
ARC
  5
6B
330
1F
100
AcDbEntity
  8
0
  6
Continuous
 62
     7
100
AcDbCircle
 10
7.4260434815
 20
5.9991199887
 30
0.0
 40
0.145241721297519
100
AcDbArc
 50
66.501434324
 51
246.501434324
  0
ARC
  5
6C
330
1F
100
AcDbEntity
  8
0
  6
Continuous
 62
     7
100
AcDbCircle
 10
16.4770803176
 20
20.6843445932
 30
0.0
 40
16.53780689259229
100
AcDbArc
 50
235.3354173215
 51
256.3296054545
  0
ARC
  5
6D
330
1F
100
AcDbEntity
  8
0
  6
Continuous
 62
     7
100
AcDbCircle
 10
6.9878452031
 20
7.0482784424
 30
0.0
 40
0.0896206491629996
100
AcDbArc
 50
22.1498632912
 51
202.1498632912
  0
ARC
  5
6E
330
1F
100
AcDbEntity
  8
0
  6
Continuous
 62
     7
100
AcDbCircle
 10
14.7162395816
 20
17.5685891786
 30
0.0
 40
13.13038550385454
100
AcDbArc
 50
233.4937647428
 51
260.5862563988
  0
ARC
  5
6F
330
1F
100
AcDbEntity
  8
0
  6
Continuous
 62
     7
100
AcDbCircle
 10
5.0790439194
 20
9.4377418173
 30
0.0
 40
1.559215721174178
100
AcDbArc
 50
265.3630548732
 51
6.8104465113
  0
ARC
  5
70
330
1F
100
AcDbEntity
  8
0
  6
Continuous
 62
     7
100
AcDbCircle
 10
8.5260958916
 20
10.6987162716
 30
0.0
 40
1.194845535905039
100
AcDbArc
 50
11.5735932696
 51
90.0
  0
ARC
  5
71
330
1F
100
AcDbEntity
  8
0
  6
Continuous
 62
     7
100
AcDbCircle
 10
8.6426062431
 20
10.3924509599
 30
0.0
 40
1.322307214508199
100
AcDbArc
 50
277.8410510978
 51
322.8562317585
  0
ARC
  5
72
330
1F
100
AcDbEntity
  8
0
  6
Continuous
 62
     7
100
AcDbCircle
 10
17.9151731886
 20
21.1949585107
 30
0.0
 40
15.96840084656093
100
AcDbArc
 50
230.7158131865
 51
249.0799640107
  0
ARC
  5
73
330
1F
100
AcDbEntity
  8
0
  6
Continuous
 62
     7
100
AcDbCircle
 10
20.3634439458
 20
23.9659233868
 30
0.0
 40
19.47416369324
100
AcDbArc
 50
229.8416237618
 51
245.2598025123
  0
ARC
  5
74
330
1F
100
AcDbEntity
  8
0
  6
Continuous
 62
     7
100
AcDbCircle
 10
15.816376024
 20
18.705889685
 30
0.0
 40
13.85836856621706
100
AcDbArc
 50
230.6652302742
 51
261.5700795035
  0
ARC
  5
75
330
1F
100
AcDbEntity
  8
0
  6
Continuous
 62
     7
100
AcDbCircle
 10
14.8845518755
 20
17.2582077864
 30
0.0
 40
12.31018713886295
100
AcDbArc
 50
228.8621064533
 51
264.8742897391
  0
ARC
  5
76
330
1F
100
AcDbEntity
  8
0
  6
Continuous
 62
     7
100
AcDbCircle
 10
8.5682223127
 20
10.4398785224
 30
0.0
 40
1.145968658510398
100
AcDbArc
 50
272.7813247688
 51
349.9616290399
  0
ARC
  5
77
330
1F
100
AcDbEntity
  8
0
  6
Continuous
 62
     7
100
AcDbCircle
 10
13.0115645105
 20
16.3602302138
 30
0.0
 40
12.29900583793689
100
AcDbArc
 50
223.5997376881
 51
258.0287092631
  0
ARC
  5
78
330
1F
100
AcDbEntity
  8
0
  6
Continuous
 62
     7
100
AcDbCircle
 10
14.3420359667
 20
17.1963324166
 30
0.0
 40
13.44032016938228
100
AcDbArc
 50
224.085228318
 51
253.2139359889
  0
ARC
  5
79
330
1F
100
AcDbEntity
  8
0
  6
Continuous
 62
     7
100
AcDbCircle
 10
16.933747586
 20
19.897562741
 30
0.0
 40
14.71445540108254
100
AcDbArc
 50
231.6526878337
 51
259.9656940654
  0
ARC
  5
7A
330
1F
100
AcDbEntity
  8
0
  6
Continuous
 62
     7
100
AcDbCircle
 10
18.3468348684
 20
21.6514177819
 30
0.0
 40
16.72298844676986
100
AcDbArc
 50
230.919659981
 51
256.2426518684
  0
ARC
  5
7B
330
1F
100
AcDbEntity
  8
0
  6
Continuous
 62
     7
100
AcDbCircle
 10
15.508499792
 20
18.7701350468
 30
0.0
 40
14.16712628719402
100
AcDbArc
 50
228.1315601771
 51
256.9195306796
  0
ARC
  5
7C
330
1F
100
AcDbEntity
  8
0
  6
Continuous
 62
     7
100
AcDbCircle
 10
16.2895025568
 20
19.3422101732
 30
0.0
 40
14.91447927509433
100
AcDbArc
 50
227.4419383911
 51
254.4937189424
  0
ARC
  5
7D
330
1F
100
AcDbEntity
  8
0
  6
Continuous
 62
     7
100
AcDbCircle
 10
16.0397735093
 20
19.0933923451
 30
0.0
 40
14.20310061091001
100
AcDbArc
 50
231.4409028042
 51
253.8206112644
  0
ARC
  5
7E
330
1F
100
AcDbEntity
  8
0
  6
Continuous
 62
     7
100
AcDbCircle
 10
17.2916202023
 20
20.3436959925
 30
0.0
 40
15.77583146186192
100
AcDbArc
 50
231.5604012937
 51
250.7179337789
  0
ARC
  5
7F
330
1F
100
AcDbEntity
  8
0
  6
Continuous
 62
     7
100
AcDbCircle
 10
17.937080926
 20
21.5292137247
 30
0.0
 40
16.74702508567636
100
AcDbArc
 50
232.7684665149
 51
253.1133654083
  0
ARC
  5
80
330
1F
100
AcDbEntity
  8
0
  6
Continuous
 62
     7
100
AcDbCircle
 10
16.1958195935
 20
19.2070610944
 30
0.0
 40
14.05422872327228
100
AcDbArc
 50
232.9715545578
 51
257.1594262573
  0
ARC
  5
81
330
1F
100
AcDbEntity
  8
0
  6
Continuous
 62
     7
100
AcDbCircle
 10
14.3769479189
 20
17.7094275022
 30
0.0
 40
13.4072688120781
100
AcDbArc
 50
227.1003586549
 51
261.0978443037
  0
ARC
  5
82
330
1F
100
AcDbEntity
  8
0
  6
Continuous
 62
     7
100
AcDbCircle
 10
15.2466408281
 20
18.2502516905
 30
0.0
 40
14.09750868869205
100
AcDbArc
 50
226.8293764159
 51
257.9443243548
  0
ARC
  5
83
330
1F
100
AcDbEntity
  8
0
  6
Continuous
 62
     7
100
AcDbCircle
 10
14.9326555139
 20
16.4928749434
 30
0.0
 40
11.92508388363902
100
AcDbArc
 50
236.8468327189
 51
264.6123354629
  0
ARC
  5
84
330
1F
100
AcDbEntity
  8
0
  6
Continuous
 62
     7
100
AcDbCircle
 10
15.1135988651
 20
18.411464347
 30
0.0
 40
13.85218683780679
100
AcDbArc
 50
229.7479267709
 51
264.6123354629
  0
ARC
  5
85
330
1F
100
AcDbEntity
  8
0
  6
Continuous
 62
     7
100
AcDbCircle
 10
6.2521941319
 20
7.9040065073
 30
0.0
 40
0.1101752546043869
100
AcDbArc
 50
35.9342517417
 51
215.9342517417
  0
ARC
  5
86
330
1F
100
AcDbEntity
  8
0
  6
Continuous
 62
     7
100
AcDbCircle
 10
5.1384287043
 20
9.1234562574
 30
0.0
 40
0.1517800910055859
100
AcDbArc
 50
60.9074862674
 51
185.4189629969
  0
ARC
  5
87
330
1F
100
AcDbEntity
  8
0
  6
Continuous
 62
     7
100
AcDbCircle
 10
5.0820949475
 20
9.2096639761
 30
0.0
 40
0.1381649927974992
100
AcDbArc
 50
19.6332333683
 51
226.693215896
  0
ARC
  5
88
330
1F
100
AcDbEntity
  8
0
  6
Continuous
 62
     7
100
AcDbCircle
 10
5.5054141945
 20
9.1663384791
 30
0.0
 40
0.131482875600853
100
AcDbArc
 50
43.0462208112
 51
186.5103994467
  0
ARC
  5
89
330
1F
100
AcDbEntity
  8
0
  6
Continuous
 62
     7
100
AcDbCircle
 10
5.4677811068
 20
9.2478649823
 30
0.0
 40
0.13397374605809
100
AcDbArc
 50
3.5185289869
 51
226.038091271
  0
ARC
  5
8A
330
1F
100
AcDbEntity
  8
0
  6
Continuous
 62
     7
100
AcDbCircle
 10
5.3562806394
 20
9.5612868858
 30
0.0
 40
0.1590000172095085
100
AcDbArc
 50
69.6276854441
 51
188.1003073732
  0
ARC
  5
8B
330
1F
100
AcDbEntity
  8
0
  6
Continuous
 62
     7
100
AcDbCircle
 10
5.3052492824
 20
9.6246121222
 30
0.0
 40
0.1366262072742251
100
AcDbArc
 50
38.8639964086
 51
218.8639964086
  0
ARC
  5
8C
330
1F
100
AcDbEntity
  8
0
  6
Continuous
 62
     7
100
AcDbCircle
 10
5.7233397064
 20
9.6172745917
 30
0.0
 40
0.1220581411901001
100
AcDbArc
 50
49.6833328845
 51
176.5535837919
  0
ARC
  5
8D
330
1F
100
AcDbEntity
  8
0
  6
Continuous
 62
     7
100
AcDbCircle
 10
5.6863288232
 20
9.7039679909
 30
0.0
 40
0.1161589031024694
100
AcDbArc
 50
3.1453355584
 51
223.0915811181
  0
ARC
  5
8E
330
1F
100
AcDbEntity
  8
0
  6
Continuous
 62
     7
100
AcDbCircle
 10
6.0065521559
 20
9.7376664853
 30
0.0
 40
0.0771000914842931
100
AcDbArc
 50
31.6701914428
 51
211.6701914428
  0
ARC
  5
8F
330
1F
100
AcDbEntity
  8
0
  6
Continuous
 62
     7
100
AcDbCircle
 10
5.7984489976
 20
10.1434172532
 30
0.0
 40
0.1219812760213747
100
AcDbArc
 50
33.2405642465
 51
239.6970371823
  0
ARC
  5
90
330
1F
100
AcDbEntity
  8
0
  6
Continuous
 62
     7
100
AcDbCircle
 10
5.8783498802
 20
10.0675114147
 30
0.0
 40
0.1444741646873972
100
AcDbArc
 50
81.1924224948
 51
191.745178934
  0
ARC
  5
91
330
1F
100
AcDbEntity
  8
0
  6
Continuous
 62
     7
100
AcDbCircle
 10
6.0792602943
 20
10.2326959077
 30
0.0
 40
0.1002558652148209
100
AcDbArc
 50
341.323492582
 51
207.0917487667
  0
ARC
  5
92
330
1F
100
AcDbEntity
  8
0
  6
Continuous
 62
     7
100
AcDbCircle
 10
6.0849838087
 20
10.1548981405
 30
0.0
 40
0.100269587380175
100
AcDbArc
 50
27.1103184356
 51
161.3049229131
  0
ARC
  5
93
330
1F
100
AcDbEntity
  8
0
  6
Continuous
 62
     7
100
AcDbCircle
 10
4.6645957655
 20
9.158067155
 30
0.0
 40
0.1624521993941456
100
AcDbArc
 50
33.5568845748
 51
204.3628314961
  0
ARC
  5
94
330
1F
100
AcDbEntity
  8
0
  6
Continuous
 62
     7
100
AcDbCircle
 10
4.7366972635
 20
9.0277774169
 30
0.0
 40
0.2290030322725966
100
AcDbArc
 50
73.9598580354
 51
163.9598580354
  0
ARC
  5
95
330
1F
100
AcDbEntity
  8
0
  6
Continuous
 62
     7
100
AcDbCircle
 10
4.2344253686
 20
9.1851271122
 30
0.0
 40
0.1501509480085003
100
AcDbArc
 50
30.4102575353
 51
210.4102575353
  0
ARC
  5
96
330
1F
100
AcDbEntity
  8
0
  6
Continuous
 62
     7
100
AcDbCircle
 10
4.3104300022
 20
9.055633472
 30
0.0
 40
0.2123455070767966
100
AcDbArc
 50
75.4102575353
 51
165.4102575353
  0
ARC
  5
97
330
1F
100
AcDbEntity
  8
0
  6
Continuous
 62
     7
100
AcDbCircle
 10
3.825859364
 20
9.2265306296
 30
0.0
 40
0.1310804584320839
100
AcDbArc
 50
24.9127706218
 51
218.4688719874
  0
ARC
  5
98
330
1F
100
AcDbEntity
  8
0
  6
Continuous
 62
     7
100
AcDbCircle
 10
3.8699784326
 20
9.1550701664
 30
0.0
 40
0.1470940332209602
100
AcDbArc
 50
59.4509343733
 51
183.9307082359
  0
ARC
  5
99
330
1F
100
AcDbEntity
  8
0
  6
Continuous
 62
     7
100
AcDbCircle
 10
3.4598985012
 20
9.2761779118
 30
0.0
 40
0.1215636026458377
100
AcDbArc
 50
18.4354725632
 51
220.2542542432
  0
ARC
  5
9A
330
1F
100
AcDbEntity
  8
0
  6
Continuous
 62
     7
100
AcDbCircle
 10
3.4931330476
 20
9.2170631535
 30
0.0
 40
0.127500309878537
100
AcDbArc
 50
49.9208528318
 51
188.7688739746
  0
ARC
  5
9B
330
1F
100
AcDbEntity
  8
0
  6
Continuous
 62
     7
100
AcDbCircle
 10
3.1390403503
 20
9.3128417511
 30
0.0
 40
0.0885286867752079
100
AcDbArc
 50
44.5267924914
 51
210.4482359365
  0
ARC
  5
9C
330
1F
100
AcDbEntity
  8
0
  6
Continuous
 62
     7
100
AcDbCircle
 10
3.1066371996
 20
9.3550894186
 30
0.0
 40
0.0975544512276604
100
AcDbArc
 50
11.7297663753
 51
243.2452620526
  0
ARC
  5
9D
330
1F
100
AcDbEntity
  8
0
  6
Continuous
 62
     7
100
AcDbCircle
 10
2.8215115042
 20
9.4322880096
 30
0.0
 40
0.0926213746337899
100
AcDbArc
 50
334.8576900068
 51
167.3041835136
  0
ARC
  5
9E
330
1F
100
AcDbEntity
  8
0
  6
Continuous
 62
     7
100
AcDbCircle
 10
2.7884022207
 20
9.3356885957
 30
0.0
 40
0.1302145095855852
100
AcDbArc
 50
26.0809367602
 51
116.0809367602
  0
ARC
  5
9F
330
1F
100
AcDbEntity
  8
0
  6
Continuous
 62
     7
100
AcDbCircle
 10
2.9691305003
 20
9.7805297708
 30
0.0
 40
0.1245423838956838
100
AcDbArc
 50
49.1984177489
 51
229.1984177489
  0
ARC
  5
A0
330
1F
100
AcDbEntity
  8
0
  6
Continuous
 62
     7
100
AcDbCircle
 10
3.0634062218
 20
9.6991486076
 30
0.0
 40
0.1761295283955537
100
AcDbArc
 50
94.1984177489
 51
184.1984177489
  0
ARC
  5
A1
330
1F
100
AcDbEntity
  8
0
  6
Continuous
 62
     7
100
AcDbCircle
 10
4.4611225878
 20
8.7807771358
 30
0.0
 40
0.134806231855536
100
AcDbArc
 50
357.7798798377
 51
184.9951516571
  0
ARC
  5
A2
330
1F
100
AcDbEntity
  8
0
  6
Continuous
 62
     7
100
AcDbCircle
 10
4.4651243167
 20
8.6155628988
 30
0.0
 40
0.2065933248480958
100
AcDbArc
 50
50.7533604846
 51
132.0216710103
  0
ARC
  5
A3
330
1F
100
AcDbEntity
  8
0
  6
Continuous
 62
     7
100
AcDbCircle
 10
4.0445397154
 20
8.6864053884
 30
0.0
 40
0.1641356019849941
100
AcDbArc
 50
35.0969768094
 51
139.8177199884
  0
ARC
  5
A4
330
1F
100
AcDbEntity
  8
0
  6
Continuous
 62
     7
100
AcDbCircle
 10
4.0497573142
 20
8.8039008887
 30
0.0
 40
0.1311298283089304
100
AcDbArc
 50
349.843211163
 51
185.0714856348
  0
ARC
  5
A5
330
1F
100
AcDbEntity
  8
0
  6
Continuous
 62
     7
100
AcDbCircle
 10
3.6686013115
 20
8.833582628
 30
0.0
 40
0.1333651866547599
100
AcDbArc
 50
0.684946821
 51
164.9279974247
  0
ARC
  5
A6
330
1F
100
AcDbEntity
  8
0
  6
Continuous
 62
     7
100
AcDbCircle
 10
3.6447079084
 20
8.6442748944
 30
0.0
 40
0.2473274109321335
100
AcDbArc
 50
50.5211682674
 51
115.0917759784
  0
ARC
  5
A7
330
1F
100
AcDbEntity
  8
0
  6
Continuous
 62
     7
100
AcDbCircle
 10
3.3142170131
 20
8.7892790183
 30
0.0
 40
0.1531615624872244
100
AcDbArc
 50
34.4733295934
 51
124.4733295934
  0
ARC
  5
A8
330
1F
100
AcDbEntity
  8
0
  6
Continuous
 62
     7
100
AcDbCircle
 10
3.3340029749
 20
8.8957578792
 30
0.0
 40
0.1083015794518432
100
AcDbArc
 50
349.4733295934
 51
169.4733295934
  0
ARC
  5
A9
330
1F
100
AcDbEntity
  8
0
  6
Continuous
 62
     7
100
AcDbCircle
 10
3.0055688704
 20
8.9150323521
 30
0.0
 40
0.1162685813800669
100
AcDbArc
 50
3.8921202442
 51
120.0239272642
  0
ARC
  5
AA
330
1F
100
AcDbEntity
  8
0
  6
Continuous
 62
     7
100
AcDbCircle
 10
3.0417260418
 20
8.9829140798
 30
0.0
 40
0.0998684212142206
100
AcDbArc
 50
323.0809001255
 51
160.835147383
  0
ARC
  5
AB
330
1F
100
AcDbEntity
  8
0
  6
Continuous
 62
     7
100
AcDbCircle
 10
4.8893493351
 20
8.6396571255
 30
0.0
 40
0.1893498699800749
100
AcDbArc
 50
53.7253881279
 51
143.7253881279
  0
ARC
  5
AC
330
1F
100
AcDbEntity
  8
0
  6
Continuous
 62
     7
100
AcDbCircle
 10
4.8664866742
 20
8.7886237884
 30
0.0
 40
0.1349429844755279
100
AcDbArc
 50
1.564991545
 51
195.8857847107
  0
ARC
  5
AD
330
1F
100
AcDbEntity
  8
0
  6
Continuous
 62
     7
100
AcDbCircle
 10
5.2991450739
 20
8.6682906259
 30
0.0
 40
0.1961707582247035
100
AcDbArc
 50
55.0115566652
 51
145.0115566652
  0
ARC
  5
AE
330
1F
100
AcDbEntity
  8
0
  6
Continuous
 62
     7
100
AcDbCircle
 10
5.271055151
 20
8.8274088129
 30
0.0
 40
0.140585517277886
100
AcDbArc
 50
0.6513550782
 51
199.3717582522
  0
ARC
  5
AF
330
1F
100
AcDbEntity
  8
0
  6
Continuous
 62
     7
100
AcDbCircle
 10
2.8204998313
 20
9.8248377756
 30
0.0
 40
0.1513728219916528
100
AcDbArc
 50
107.0201374315
 51
197.0201374315
  0
ARC
  5
B0
330
1F
100
AcDbEntity
  8
0
  6
Continuous
 62
     7
100
AcDbCircle
 10
2.7343683573
 20
9.8705958694
 30
0.0
 40
0.1074579519192371
100
AcDbArc
 50
67.0947868008
 51
236.9454880623
  0
ARC
  5
B1
330
1F
100
AcDbEntity
  8
0
  6
Continuous
 62
     7
100
AcDbCircle
 10
2.9668921898
 20
10.1864671195
 30
0.0
 40
0.3348691113268797
100
AcDbArc
 50
128.741792607
 51
177.5826125456
  0
ARC
  5
B2
330
1F
100
AcDbEntity
  8
0
  6
Continuous
 62
     7
100
AcDbCircle
 10
2.7650011061
 20
10.2886168693
 30
0.0
 40
0.1592245290639796
100
AcDbArc
 50
92.7624816007
 51
213.5619235519
  0
ARC
  5
B3
330
1F
100
AcDbEntity
  8
0
  6
Continuous
 62
     7
100
AcDbCircle
 10
2.5511603329
 20
9.5501984134
 30
0.0
 40
0.1293098960203103
100
AcDbArc
 50
335.8221887089
 51
84.2229509436
  0
ARC
  5
B4
330
1F
100
AcDbEntity
  8
0
  6
Continuous
 62
     7
100
AcDbCircle
 10
-1.2546527426
 20
7.3509118517
 30
0.0
 40
4.472444425246967
100
AcDbArc
 50
28.678857301
 51
31.3662823515
  0
ARC
  5
B5
330
1F
100
AcDbEntity
  8
0
  6
Continuous
 62
     7
100
AcDbCircle
 10
5.8912007842
 20
9.2398153747
 30
0.0
 40
0.1175992813486907
100
AcDbArc
 50
56.6650989654
 51
180.5116965716
  0
ARC
  5
B6
330
1F
100
AcDbEntity
  8
0
  6
Continuous
 62
     7
100
AcDbCircle
 10
5.8476106144
 20
9.3198039369
 30
0.0
 40
0.1097448950113906
100
AcDbArc
 50
9.5790417186
 51
227.5977538185
  0
ARC
  5
B7
330
1F
100
AcDbEntity
  8
0
  6
Continuous
 62
     7
100
AcDbCircle
 10
3.0989718322
 20
8.7538445136
 30
0.0
 40
0.1567857438369766
100
AcDbArc
 50
194.8069038843
 51
284.8069038843
  0
ARC
  5
B8
330
1F
100
AcDbEntity
  8
0
  6
Continuous
 62
     7
100
AcDbCircle
 10
3.6121773991
 20
9.6358644087
 30
0.0
 40
1.136743575829475
100
AcDbArc
 50
234.2100677665
 51
245.4037400021
  0
ARC
  5
B9
330
1F
100
AcDbEntity
  8
0
  6
Continuous
 62
     7
100
AcDbCircle
 10
3.3436323934
 20
8.6905610929
 30
0.0
 40
0.1588504847952142
100
AcDbArc
 50
207.0467404292
 51
297.0467404292
  0
ARC
  5
BA
330
1F
100
AcDbEntity
  8
0
  6
Continuous
 62
     7
100
AcDbCircle
 10
3.5009532089
 20
9.1760921358
 30
0.0
 40
0.63275616410871
100
AcDbArc
 50
241.8216414102
 51
262.2718394482
  0
ARC
  5
BB
330
1F
100
AcDbEntity
  8
0
  6
Continuous
 62
     7
100
AcDbCircle
 10
3.61259871
 20
8.5768784945
 30
0.0
 40
0.1194969091240449
100
AcDbArc
 50
181.3102997143
 51
337.7911544812
  0
ARC
  5
BC
330
1F
100
AcDbEntity
  8
0
  6
Continuous
 62
     7
100
AcDbCircle
 10
3.6978506523
 20
9.0391404934
 30
0.0
 40
0.5080641895507857
100
AcDbArc
 50
246.2381180987
 51
272.8633360968
  0
ARC
  5
BD
330
1F
100
AcDbEntity
  8
0
  6
Continuous
 62
     7
100
AcDbCircle
 10
3.9296102978
 20
8.5331720283
 30
0.0
 40
0.1164944973491643
100
AcDbArc
 50
186.5325145225
 51
350.5975595275
  0
ARC
  5
BE
330
1F
100
AcDbEntity
  8
0
  6
Continuous
 62
     7
100
AcDbCircle
 10
3.9368536838
 20
8.8223283881
 30
0.0
 40
0.3264598299674706
100
AcDbArc
 50
247.8697972437
 51
289.2602768063
  0
ARC
  5
BF
330
1F
100
AcDbEntity
  8
0
  6
Continuous
 62
     7
100
AcDbCircle
 10
4.2796440511
 20
8.5302228942
 30
0.0
 40
0.1373218257004766
100
AcDbArc
 50
194.487802656
 51
345.5123517846
  0
ARC
  5
C0
330
1F
100
AcDbEntity
  8
0
  6
Continuous
 62
     7
100
AcDbCircle
 10
4.2796434784
 20
8.9551301511
 30
0.0
 40
0.4781193595100197
100
AcDbArc
 50
253.8544640757
 51
286.1456903649
  0
ARC
  5
C1
330
1F
100
AcDbEntity
  8
0
  6
Continuous
 62
     7
100
AcDbCircle
 10
4.6427737681
 20
8.5343656446
 30
0.0
 40
0.1319066740026322
100
AcDbArc
 50
196.9686387393
 51
2.231669879
  0
ARC
  5
C2
330
1F
100
AcDbEntity
  8
0
  6
Continuous
 62
     7
100
AcDbCircle
 10
4.6156379407
 20
8.6947996625
 30
0.0
 40
0.2222161887902298
100
AcDbArc
 50
243.5357587234
 51
315.6645498949
  0
ARC
  5
C3
330
1F
100
AcDbEntity
  8
0
  6
Continuous
 62
     7
100
AcDbCircle
 10
5.013695789
 20
8.5590033
 30
0.0
 40
0.1394560539063025
100
AcDbArc
 50
206.9182564375
 51
7.364317078
  0
ARC
  5
C4
330
1F
100
AcDbEntity
  8
0
  6
Continuous
 62
     7
100
AcDbCircle
 10
4.9239991951
 20
8.8498208146
 30
0.0
 40
0.3556438653989811
100
AcDbArc
 50
264.4088869268
 51
309.8736865888
  0
ARC
  5
C5
330
1F
100
AcDbEntity
  8
0
  6
Continuous
 62
     7
100
AcDbCircle
 10
5.3689222774
 20
8.6087744059
 30
0.0
 40
0.1399420801588305
100
AcDbArc
 50
212.1211419399
 51
12.7491023032
  0
ARC
  5
C6
330
1F
100
AcDbEntity
  8
0
  6
Continuous
 62
     7
100
AcDbCircle
 10
5.2973446776
 20
8.7821329771
 30
0.0
 40
0.2521751219505984
100
AcDbArc
 50
259.2716840102
 51
325.5985602329
  0
ARC
  5
C7
330
1F
100
AcDbEntity
  8
0
  6
Continuous
 62
     7
100
AcDbCircle
 10
5.7150217899
 20
8.6788832869
 30
0.0
 40
0.1007625278907132
100
AcDbArc
 50
224.0896664756
 51
29.9680940858
  0
ARC
  5
C8
330
1F
100
AcDbEntity
  8
0
  6
Continuous
 62
     7
100
AcDbCircle
 10
5.5016992744
 20
8.9616751391
 30
0.0
 40
0.3800075406612128
100
AcDbArc
 50
291.7719210685
 51
322.2858394929
  0
ARC
  5
C9
330
1F
100
AcDbEntity
  8
0
  6
Continuous
 62
     7
100
AcDbCircle
 10
5.8587209679
 20
9.0318438239
 30
0.0
 40
0.2031408844274005
100
AcDbArc
 50
266.8647662514
 51
16.9460188427
  0
ARC
  5
CA
330
1F
100
AcDbEntity
  8
0
  6
Continuous
 62
     7
100
AcDbCircle
 10
5.2656507232
 20
9.4967801669
 30
0.0
 40
0.8857755491666713
100
AcDbArc
 50
311.071934584
 51
332.73885051
  0
ARC
  5
CB
330
1F
100
AcDbEntity
  8
0
  6
Continuous
 62
     7
100
AcDbCircle
 10
6.0130690858
 20
9.4351499013
 30
0.0
 40
0.2081521189295981
100
AcDbArc
 50
290.2117825822
 51
20.2117825822
  0
ARC
  5
CC
330
1F
100
AcDbEntity
  8
0
  6
Continuous
 62
     7
100
AcDbCircle
 10
5.4589738115
 20
9.6910396003
 30
0.0
 40
0.7716811635839125
100
AcDbArc
 50
324.2161644488
 51
346.2074007155
  0
ARC
  5
CD
330
1F
100
AcDbEntity
  8
0
  6
Continuous
 62
     7
100
AcDbCircle
 10
6.1563421955
 20
10.7025366019
 30
0.0
 40
0.1436737560307888
100
AcDbArc
 50
351.1684359342
 51
98.8315640658
  0
ARC
  5
CE
330
1F
100
AcDbEntity
  8
0
  6
Continuous
 62
     7
100
AcDbCircle
 10
8.5655216555
 20
13.111716062
 30
0.0
 40
3.324327602055367
100
AcDbArc
 50
223.0005451858
 51
226.9994548142
  0
ARC
  5
CF
330
1F
100
AcDbEntity
  8
0
  6
Continuous
 62
     7
100
AcDbCircle
 10
3.6447215521
 20
8.4100302021
 30
0.0
 40
0.1885639880112558
100
AcDbArc
 50
191.4319175586
 51
281.4319175586
  0
ARC
  5
D0
330
1F
100
AcDbEntity
  8
0
  6
Continuous
 62
     7
100
AcDbCircle
 10
4.5750199512
 20
9.8119355259
 30
0.0
 40
1.820719879683582
100
AcDbArc
 50
232.2322762223
 51
240.6315588948
  0
ARC
  5
D1
330
1F
100
AcDbEntity
  8
0
  6
Continuous
 62
     7
100
AcDbCircle
 10
3.8822444394
 20
8.3541710889
 30
0.0
 40
0.151759498506584
100
AcDbArc
 50
196.6825090314
 51
307.3792114883
  0
ARC
  5
D2
330
1F
100
AcDbEntity
  8
0
  6
Continuous
 62
     7
100
AcDbCircle
 10
-16.8906076609
 20
-55.6954562203
 30
0.0
 40
67.24781713191194
100
AcDbArc
 50
71.9244944548
 51
72.1372260649
  0
ARC
  5
D3
330
1F
100
AcDbEntity
  8
0
  6
Continuous
 62
     7
100
AcDbCircle
 10
4.1492936939
 20
8.2868607763
 30
0.0
 40
0.1201838702706408
100
AcDbArc
 50
187.0058055207
 51
352.9941944793
  0
ARC
  5
D4
330
1F
100
AcDbEntity
  8
0
  6
Continuous
 62
     7
100
AcDbCircle
 10
4.1492936939
 20
8.5005905359
 30
0.0
 40
0.257663779648112
100
AcDbArc
 50
242.4220923776
 51
297.5779076224
  0
ARC
  5
D5
330
1F
100
AcDbEntity
  8
0
  6
Continuous
 62
     7
100
AcDbCircle
 10
4.4730741623
 20
8.2879848463
 30
0.0
 40
0.1229457489999111
100
AcDbArc
 50
196.5744859408
 51
3.2048323401
  0
ARC
  5
D6
330
1F
100
AcDbEntity
  8
0
  6
Continuous
 62
     7
100
AcDbCircle
 10
4.4315419043
 20
8.5262078007
 30
0.0
 40
0.2837471236687534
100
AcDbArc
 50
254.4000351521
 51
305.3792831288
  0
ARC
  5
D7
330
1F
100
AcDbEntity
  8
0
  6
Continuous
 62
     7
100
AcDbCircle
 10
4.8017170937
 20
8.2884565219
 30
0.0
 40
0.1193547669384979
100
AcDbArc
 50
197.3252756678
 51
17.3252756678
  0
ARC
  5
D8
330
1F
100
AcDbEntity
  8
0
  6
Continuous
 62
     7
100
AcDbCircle
 10
4.7561154752
 20
8.4346393001
 30
0.0
 40
0.1941506442321893
100
AcDbArc
 50
249.3912722297
 51
325.2592791058
  0
ARC
  5
D9
330
1F
100
AcDbEntity
  8
0
  6
Continuous
 62
     7
100
AcDbCircle
 10
5.1181964503
 20
8.3046160795
 30
0.0
 40
0.1220632237557786
100
AcDbArc
 50
205.0605006861
 51
25.0605006861
  0
ARC
  5
DA
330
1F
100
AcDbEntity
  8
0
  6
Continuous
 62
     7
100
AcDbCircle
 10
5.0394892608
 20
8.4729399191
 30
0.0
 40
0.222322214923503
100
AcDbArc
 50
261.7594970821
 51
328.3615042901
  0
ARC
  5
DB
330
1F
100
AcDbEntity
  8
0
  6
Continuous
 62
     7
100
AcDbCircle
 10
5.3741633674
 20
8.4211801713
 30
0.0
 40
0.1749720191243101
100
AcDbArc
 50
257.1095856235
 51
359.4652797674
  0
ARC
  5
DC
330
1F
100
AcDbEntity
  8
0
  6
Continuous
 62
     7
100
AcDbCircle
 10
1.7972081562
 20
12.9524340961
 30
0.0
 40
5.884213112999754
100
AcDbArc
 50
306.9599389912
 51
309.6149263998
  0
ARC
  5
DD
330
1F
100
AcDbEntity
  8
0
  6
Continuous
 62
     7
100
AcDbCircle
 10
6.2315458195
 20
9.8671360924
 30
0.0
 40
0.1389215289947072
100
AcDbArc
 50
260.4106922277
 51
47.5128057727
  0
ARC
  5
DE
330
1F
100
AcDbEntity
  8
0
  6
Continuous
 62
     7
100
AcDbCircle
 10
6.0492560296
 20
9.9561954602
 30
0.0
 40
0.2764451642830427
100
AcDbArc
 50
305.1481871937
 51
2.7753108067
  0
ARC
  5
DF
330
1F
100
AcDbEntity
  8
0
  6
Continuous
 62
     7
100
AcDbCircle
 10
5.7404041315
 20
8.7325897245
 30
0.0
 40
0.2142030294560224
100
AcDbArc
 50
83.8843629521
 51
153.2485558044
  0
ARC
  5
E0
330
1F
100
AcDbEntity
  8
0
  6
Continuous
 62
     7
100
AcDbCircle
 10
5.6561760561
 20
8.8872903499
 30
0.0
 40
0.1218863637005024
100
AcDbArc
 50
28.5664593782
 51
208.5664593782
  0
ARC
  5
E1
330
1F
100
AcDbEntity
  8
0
  6
Continuous
 62
     7
100
AcDbCircle
 10
2.7104797766
 20
9.0779115439
 30
0.0
 40
0.1451661868156717
100
AcDbArc
 50
351.1721607083
 51
106.5507797624
  0
ARC
  5
E2
330
1F
100
AcDbEntity
  8
0
  6
Continuous
 62
     7
100
AcDbCircle
 10
2.4791012422
 20
8.8130371289
 30
0.0
 40
0.4464827215690873
100
AcDbArc
 50
32.9119736836
 51
64.8109667872
  0
LINE
  5
E3
330
1F
100
AcDbEntity
  8
0
  6
Continuous
 62
     7
100
AcDbLine
 10
26.0209575311
 20
9.7652121832
 30
0.0
 11
26.0926127066
 21
9.7652121832
 31
0.0
  0
LINE
  5
E4
330
1F
100
AcDbEntity
  8
0
  6
Continuous
 62
     7
100
AcDbLine
 10
7.6370179779
 20
10.9927567587
 30
0.0
 11
7.6370179779
 21
10.2005915148
 31
0.0
  0
LINE
  5
E5
330
1F
100
AcDbEntity
  8
0
  6
Continuous
 62
     7
100
AcDbLine
 10
7.6370179779
 20
10.2005915148
 30
0.0
 11
8.4110765877
 21
10.2005915148
 31
0.0
  0
LINE
  5
E6
330
1F
100
AcDbEntity
  8
0
  6
Continuous
 62
     7
100
AcDbLine
 10
8.3793899779
 20
10.9927567587
 30
0.0
 11
7.6370179779
 21
10.9927567587
 31
0.0
  0
LINE
  5
E7
330
1F
100
AcDbEntity
  8
0
  6
Continuous
 62
     7
100
AcDbLine
 10
10.7468323926
 20
10.9384368563
 30
0.0
 11
10.7468323926
 21
10.4767176855
 31
0.0
  0
LINE
  5
E8
330
1F
100
AcDbEntity
  8
0
  6
Continuous
 62
     7
100
AcDbLine
 10
10.7468323926
 20
10.4767176855
 30
0.0
 11
12.4941225878
 21
10.4767176855
 31
0.0
  0
LINE
  5
E9
330
1F
100
AcDbEntity
  8
0
  6
Continuous
 62
     7
100
AcDbLine
 10
12.4941225878
 20
10.4767176855
 30
0.0
 11
12.4941225878
 21
9.5940192709
 31
0.0
  0
LINE
  5
EA
330
1F
100
AcDbEntity
  8
0
  6
Continuous
 62
     7
100
AcDbLine
 10
12.4941225878
 20
9.5940192709
 30
0.0
 11
10.7468323926
 21
9.5940192709
 31
0.0
  0
LINE
  5
EB
330
1F
100
AcDbEntity
  8
0
  6
Continuous
 62
     7
100
AcDbLine
 10
10.7468323926
 20
9.5940192709
 30
0.0
 11
10.7468323926
 21
9.123246783
 31
0.0
  0
LINE
  5
EC
330
1F
100
AcDbEntity
  8
0
  6
Continuous
 62
     7
100
AcDbLine
 10
10.7468323926
 20
9.123246783
 30
0.0
 11
12.6438475872
 21
9.123246783
 31
0.0
  0
LINE
  5
ED
330
1F
100
AcDbEntity
  8
0
  6
Continuous
 62
     7
100
AcDbLine
 10
12.6438475872
 20
9.123246783
 30
0.0
 11
12.6438475872
 21
10.9384368563
 31
0.0
  0
LINE
  5
EE
330
1F
100
AcDbEntity
  8
0
  6
Continuous
 62
     7
100
AcDbLine
 10
12.6438475872
 20
10.9384368563
 30
0.0
 11
10.7468323926
 21
10.9384368563
 31
0.0
  0
LINE
  5
EF
330
1F
100
AcDbEntity
  8
0
  6
Continuous
 62
     7
100
AcDbLine
 10
20.2465716379
 20
11.8935588158
 30
0.0
 11
19.529454048
 21
11.8935588158
 31
0.0
  0
LINE
  5
F0
330
1F
100
AcDbEntity
  8
0
  6
Continuous
 62
     7
100
AcDbLine
 10
20.2465716379
 20
4.3287073796
 30
0.0
 11
20.2465716379
 21
11.8935588158
 31
0.0
  0
LINE
  5
F1
330
1F
100
AcDbEntity
  8
0
  6
Continuous
 62
     7
100
AcDbLine
 10
15.9932296368
 20
8.1952787913
 30
0.0
 11
15.9932296368
 21
11.8935588158
 31
0.0
  0
LINE
  5
F2
330
1F
100
AcDbEntity
  8
0
  6
Continuous
 62
     7
100
AcDbLine
 10
15.9932296368
 20
11.8935588158
 30
0.0
 11
14.9611514904
 21
11.8935588158
 31
0.0
  0
LINE
  5
F3
330
1F
100
AcDbEntity
  8
0
  6
Continuous
 62
     7
100
AcDbLine
 10
14.9611514904
 20
11.8935588158
 30
0.0
 11
14.9611514904
 21
9.6862540493
 31
0.0
  0
LINE
  5
F4
330
1F
100
AcDbEntity
  8
0
  6
Continuous
 62
     7
100
AcDbLine
 10
14.9611514904
 20
9.6862540493
 30
0.0
 11
13.7143475428
 21
11.8935588158
 31
0.0
  0
LINE
  5
F5
330
1F
100
AcDbEntity
  8
0
  6
Continuous
 62
     7
100
AcDbLine
 10
13.7143475428
 20
11.8935588158
 30
0.0
 11
9.6966476121
 21
11.8935588158
 31
0.0
  0
LINE
  5
F6
330
1F
100
AcDbEntity
  8
0
  6
Continuous
 62
     7
100
AcDbLine
 10
9.6966476121
 20
11.8935588158
 30
0.0
 11
9.6966476121
 21
8.1952787913
 31
0.0
  0
LINE
  5
F7
330
1F
100
AcDbEntity
  8
0
  6
Continuous
 62
     7
100
AcDbLine
 10
9.6966476121
 20
8.1952787913
 30
0.0
 11
13.625787222
 21
8.1952787913
 31
0.0
  0
LINE
  5
F8
330
1F
100
AcDbEntity
  8
0
  6
Continuous
 62
     7
100
AcDbLine
 10
13.625787222
 20
8.1952787913
 30
0.0
 11
13.625787222
 21
10.3590215719
 31
0.0
  0
LINE
  5
F9
330
1F
100
AcDbEntity
  8
0
  6
Continuous
 62
     7
100
AcDbLine
 10
13.625787222
 20
10.3590215719
 30
0.0
 11
14.847985027
 21
8.1952787913
 31
0.0
  0
LINE
  5
FA
330
1F
100
AcDbEntity
  8
0
  6
Continuous
 62
     7
100
AcDbLine
 10
14.847985027
 20
8.1952787913
 30
0.0
 11
15.9932296368
 21
8.1952787913
 31
0.0
  0
LINE
  5
FB
330
1F
100
AcDbEntity
  8
0
  6
Continuous
 62
     7
100
AcDbLine
 10
17.5206984431
 20
11.8935588158
 30
0.0
 11
16.2189861733
 21
11.8935588158
 31
0.0
  0
LINE
  5
FC
330
1F
100
AcDbEntity
  8
0
  6
Continuous
 62
     7
100
AcDbLine
 10
17.5206984431
 20
11.1443961098
 30
0.0
 11
17.5206984431
 21
11.8935588158
 31
0.0
  0
LINE
  5
FD
330
1F
100
AcDbEntity
  8
0
  6
Continuous
 62
     7
100
AcDbLine
 10
16.9331123467
 20
11.1443961098
 30
0.0
 11
17.5206984431
 21
11.1443961098
 31
0.0
  0
LINE
  5
FE
330
1F
100
AcDbEntity
  8
0
  6
Continuous
 62
     7
100
AcDbLine
 10
16.9331123467
 20
8.4679258477
 30
0.0
 11
16.9331123467
 21
11.1443961098
 31
0.0
  0
LINE
  5
FF
330
1F
100
AcDbEntity
  8
0
  6
Continuous
 62
     7
100
AcDbLine
 10
17.5206984431
 20
8.4679258477
 30
0.0
 11
16.9331123467
 21
8.4679258477
 31
0.0
  0
LINE
  5
100
330
1F
100
AcDbEntity
  8
0
  6
Continuous
 62
     7
100
AcDbLine
 10
17.5206984431
 20
7.715210943
 30
0.0
 11
17.5206984431
 21
8.4679258477
 31
0.0
  0
LINE
  5
101
330
1F
100
AcDbEntity
  8
0
  6
Continuous
 62
     7
100
AcDbLine
 10
16.9331123467
 20
7.715210943
 30
0.0
 11
17.5206984431
 21
7.715210943
 31
0.0
  0
LINE
  5
102
330
1F
100
AcDbEntity
  8
0
  6
Continuous
 62
     7
100
AcDbLine
 10
16.9331123467
 20
4.3287073796
 30
0.0
 11
16.9331123467
 21
7.715210943
 31
0.0
  0
LINE
  5
103
330
1F
100
AcDbEntity
  8
0
  6
Continuous
 62
     7
100
AcDbLine
 10
16.2189861733
 20
4.3287073796
 30
0.0
 11
16.9331123467
 21
4.3287073796
 31
0.0
  0
LINE
  5
104
330
1F
100
AcDbEntity
  8
0
  6
Continuous
 62
     7
100
AcDbLine
 10
16.2189861733
 20
11.8935588158
 30
0.0
 11
16.2189861733
 21
4.3287073796
 31
0.0
  0
LINE
  5
105
330
1F
100
AcDbEntity
  8
0
  6
Continuous
 62
     7
100
AcDbLine
 10
19.529454048
 20
4.3287073796
 30
0.0
 11
20.2465716379
 21
4.3287073796
 31
0.0
  0
LINE
  5
106
330
1F
100
AcDbEntity
  8
0
  6
Continuous
 62
     7
100
AcDbLine
 10
19.529454048
 20
11.8935588158
 30
0.0
 11
19.529454048
 21
4.3287073796
 31
0.0
  0
LINE
  5
107
330
1F
100
AcDbEntity
  8
0
  6
Continuous
 62
     7
100
AcDbLine
 10
18.589126325
 20
11.8935588158
 30
0.0
 11
17.8776880946
 21
11.8935588158
 31
0.0
  0
LINE
  5
108
330
1F
100
AcDbEntity
  8
0
  6
Continuous
 62
     7
100
AcDbLine
 10
18.589126325
 20
5.0461573201
 30
0.0
 11
18.589126325
 21
11.8935588158
 31
0.0
  0
LINE
  5
109
330
1F
100
AcDbEntity
  8
0
  6
Continuous
 62
     7
100
AcDbLine
 10
19.1653704205
 20
5.0461573201
 30
0.0
 11
18.589126325
 21
5.0461573201
 31
0.0
  0
LINE
  5
10A
330
1F
100
AcDbEntity
  8
0
  6
Continuous
 62
     7
100
AcDbLine
 10
19.1653704205
 20
4.3287073796
 30
0.0
 11
19.1653704205
 21
5.0461573201
 31
0.0
  0
LINE
  5
10B
330
1F
100
AcDbEntity
  8
0
  6
Continuous
 62
     7
100
AcDbLine
 10
17.8776880946
 20
4.3287073796
 30
0.0
 11
19.1653704205
 21
4.3287073796
 31
0.0
  0
LINE
  5
10C
330
1F
100
AcDbEntity
  8
0
  6
Continuous
 62
     7
100
AcDbLine
 10
17.8776880946
 20
11.8935588158
 30
0.0
 11
17.8776880946
 21
4.3287073796
 31
0.0
  0
LINE
  5
10D
330
1F
100
AcDbEntity
  8
0
  6
Continuous
 62
     7
100
AcDbLine
 10
26.0926127066
 20
9.6862540493
 30
0.0
 11
26.0209575311
 21
9.6862540493
 31
0.0
  0
LINE
  5
10E
330
1F
100
AcDbEntity
  8
0
  6
Continuous
 62
     7
100
AcDbLine
 10
26.0209575311
 20
9.6862540493
 30
0.0
 11
26.0209575311
 21
5.1929427436
 31
0.0
  0
LINE
  5
10F
330
1F
100
AcDbEntity
  8
0
  6
Continuous
 62
     7
100
AcDbLine
 10
22.9531113687
 20
11.8935588158
 30
0.0
 11
22.9531113687
 21
4.3287073796
 31
0.0
  0
LINE
  5
110
330
1F
100
AcDbEntity
  8
0
  6
Continuous
 62
     7
100
AcDbLine
 10
22.9531113687
 20
4.3287073796
 30
0.0
 11
23.6299299707
 21
4.3287073796
 31
0.0
  0
LINE
  5
111
330
1F
100
AcDbEntity
  8
0
  6
Continuous
 62
     7
100
AcDbLine
 10
23.6299299707
 20
4.3287073796
 30
0.0
 11
23.6299299707
 21
6.8457568
 31
0.0
  0
LINE
  5
112
330
1F
100
AcDbEntity
  8
0
  6
Continuous
 62
     7
100
AcDbLine
 10
24.2135998725
 20
7.9209381981
 30
0.0
 11
24.2135998725
 21
4.3287073796
 31
0.0
  0
LINE
  5
113
330
1F
100
AcDbEntity
  8
0
  6
Continuous
 62
     7
100
AcDbLine
 10
24.2135998725
 20
4.3287073796
 30
0.0
 11
24.9173549694
 21
4.3287073796
 31
0.0
  0
LINE
  5
114
330
1F
100
AcDbEntity
  8
0
  6
Continuous
 62
     7
100
AcDbLine
 10
24.9173549694
 20
4.3287073796
 30
0.0
 11
24.9173549694
 21
11.8935588158
 31
0.0
  0
LINE
  5
115
330
1F
100
AcDbEntity
  8
0
  6
Continuous
 62
     7
100
AcDbLine
 10
24.9173549694
 20
11.8935588158
 30
0.0
 11
24.2135998725
 21
11.8935588158
 31
0.0
  0
LINE
  5
116
330
1F
100
AcDbEntity
  8
0
  6
Continuous
 62
     7
100
AcDbLine
 10
24.2135998725
 20
11.8935588158
 30
0.0
 11
24.2135998725
 21
9.6862540493
 31
0.0
  0
LINE
  5
117
330
1F
100
AcDbEntity
  8
0
  6
Continuous
 62
     7
100
AcDbLine
 10
23.6299299707
 20
8.3366637207
 30
0.0
 11
23.6299299707
 21
11.8935588158
 31
0.0
  0
LINE
  5
118
330
1F
100
AcDbEntity
  8
0
  6
Continuous
 62
     7
100
AcDbLine
 10
23.6299299707
 20
11.8935588158
 30
0.0
 11
22.9531113687
 21
11.8935588158
 31
0.0
  0
LINE
  5
119
330
1F
100
AcDbEntity
  8
0
  6
Continuous
 62
     7
100
AcDbLine
 10
26.0209575311
 20
5.1929427436
 30
0.0
 11
26.0926127066
 21
5.1929427436
 31
0.0
  0
LINE
  5
11A
330
1F
100
AcDbEntity
  8
0
  6
Continuous
 62
     7
100
AcDbLine
 10
26.0926127066
 20
5.1929427436
 30
0.0
 11
26.0926127066
 21
9.6862540493
 31
0.0
  0
LINE
  5
11B
330
1F
100
AcDbEntity
  8
0
  6
Continuous
 62
     7
100
AcDbLine
 10
21.9318430181
 20
11.9629713853
 30
0.0
 11
21.2614744147
 21
11.9629713853
 31
0.0
  0
LINE
  5
11C
330
1F
100
AcDbEntity
  8
0
  6
Continuous
 62
     7
100
AcDbLine
 10
20.631708087
 20
11.3332050576
 30
0.0
 11
20.631708087
 21
4.9706007715
 31
0.0
  0
LINE
  5
11D
330
1F
100
AcDbEntity
  8
0
  6
Continuous
 62
     7
100
AcDbLine
 10
21.2574180183
 20
4.3287073796
 30
0.0
 11
21.9602097083
 21
4.3287073796
 31
0.0
  0
LINE
  5
11E
330
1F
100
AcDbEntity
  8
0
  6
Continuous
 62
     7
100
AcDbLine
 10
22.5798986629
 20
4.9483963342
 30
0.0
 11
22.5798986629
 21
7.8305104972
 31
0.0
  0
LINE
  5
11F
330
1F
100
AcDbEntity
  8
0
  6
Continuous
 62
     7
100
AcDbLine
 10
22.5798986629
 20
7.8305104972
 30
0.0
 11
21.5780193634
 21
7.8305104972
 31
0.0
  0
LINE
  5
120
330
1F
100
AcDbEntity
  8
0
  6
Continuous
 62
     7
100
AcDbLine
 10
21.5780193634
 20
7.8305104972
 30
0.0
 11
21.5780193634
 21
7.1164438651
 31
0.0
  0
LINE
  5
121
330
1F
100
AcDbEntity
  8
0
  6
Continuous
 62
     7
100
AcDbLine
 10
21.5780193634
 20
7.1164438651
 30
0.0
 11
21.8986207084
 21
7.1164438651
 31
0.0
  0
LINE
  5
122
330
1F
100
AcDbEntity
  8
0
  6
Continuous
 62
     7
100
AcDbLine
 10
21.8986207084
 20
7.1164438651
 30
0.0
 11
21.8986207084
 21
5.3349204818
 31
0.0
  0
LINE
  5
123
330
1F
100
AcDbEntity
  8
0
  6
Continuous
 62
     7
100
AcDbLine
 10
21.3266387633
 20
5.2037653861
 30
0.0
 11
21.3266387633
 21
11.1095100197
 31
0.0
  0
LINE
  5
124
330
1F
100
AcDbEntity
  8
0
  6
Continuous
 62
     7
100
AcDbLine
 10
21.8986207084
 20
10.9927567587
 30
0.0
 11
21.8986207084
 21
9.123246783
 31
0.0
  0
LINE
  5
125
330
1F
100
AcDbEntity
  8
0
  6
Continuous
 62
     7
100
AcDbLine
 10
21.8986207084
 20
9.123246783
 30
0.0
 11
22.5798985666
 21
9.123246783
 31
0.0
  0
LINE
  5
126
330
1F
100
AcDbEntity
  8
0
  6
Continuous
 62
     7
100
AcDbLine
 10
22.5798985666
 20
9.123246783
 30
0.0
 11
22.5798985666
 21
11.3693731969
 31
0.0
  0
LINE
  5
127
330
1F
100
AcDbEntity
  8
0
  6
Continuous
 62
     7
100
AcDbLine
 10
26.4979968365
 20
5.1665066382
 30
0.0
 11
26.4979968365
 21
9.5940192709
 31
0.0
  0
LINE
  5
128
330
1F
100
AcDbEntity
  8
0
  6
Continuous
 62
     7
100
AcDbLine
 10
25.8610905254
 20
9.4488714851
 30
0.0
 11
25.8610905254
 21
5.1583791375
 31
0.0
  0
LINE
  5
129
330
1F
100
AcDbEntity
  8
0
  6
Continuous
 62
     7
100
AcDbLine
 10
27.0801075413
 20
11.8935588158
 30
0.0
 11
25.2797210816
 21
11.8935588158
 31
0.0
  0
LINE
  5
12A
330
1F
100
AcDbEntity
  8
0
  6
Continuous
 62
     7
100
AcDbLine
 10
7.8452442706
 20
10.2005915148
 30
0.0
 11
7.8452442706
 21
10.7814253478
 31
0.0
  0
LINE
  5
12B
330
1F
100
AcDbEntity
  8
0
  6
Continuous
 62
     7
100
AcDbLine
 10
7.8452442706
 20
10.7814253478
 30
0.0
 11
8.6392378007
 21
10.7814253478
 31
0.0
  0
LINE
  5
12C
330
1F
100
AcDbEntity
  8
0
  6
Continuous
 62
     7
100
AcDbLine
 10
6.5641999046
 20
11.8935618075
 30
0.0
 11
6.5641999046
 21
10.6032285911
 31
0.0
  0
LINE
  5
12D
330
1F
100
AcDbEntity
  8
0
  6
Continuous
 62
     7
100
AcDbLine
 10
6.5641999046
 20
11.8935618075
 30
0.0
 11
8.5260958916
 21
11.8935618075
 31
0.0
  0
LINE
  5
12E
330
1F
100
AcDbEntity
  8
0
  6
Continuous
 62
     7
100
AcDbLine
 10
6.786006173
 20
7.9870554903
 30
0.0
 11
7.8045043437
 21
7.9870554903
 31
0.0
  0
LINE
  5
12F
330
1F
100
AcDbEntity
  8
0
  6
Continuous
 62
     7
100
AcDbLine
 10
7.8045043437
 20
7.9870554903
 30
0.0
 11
7.8045043437
 21
9.0825068562
 31
0.0
  0
LINE
  5
130
330
1F
100
AcDbEntity
  8
0
  6
Continuous
 62
     7
100
AcDbLine
 10
7.8045043437
 20
9.0825068562
 30
0.0
 11
8.8230025145
 21
9.0825068562
 31
0.0
  0
LINE
  5
131
330
1F
100
AcDbEntity
  8
0
  6
Continuous
 62
     7
100
AcDbLine
 10
6.786006173
 20
8.195281783
 30
0.0
 11
6.786006173
 21
7.9870554903
 31
0.0
  0
LINE
  5
132
330
1F
100
AcDbEntity
  8
0
  6
Continuous
 62
     7
100
AcDbLine
 10
6.5641999046
 20
8.195281783
 30
0.0
 11
6.5641999046
 21
8.9629098841
 31
0.0
  0
LINE
  5
133
330
1F
100
AcDbEntity
  8
0
  6
Continuous
 62
     7
100
AcDbLine
 10
6.5641999046
 20
8.195281783
 30
0.0
 11
7.6098580266
 21
8.195281783
 31
0.0
  0
LINE
  5
134
330
1F
100
AcDbEntity
  8
0
  6
Continuous
 62
     7
100
AcDbLine
 10
7.6098580266
 20
8.195281783
 30
0.0
 11
7.6098580266
 21
9.2952598074
 31
0.0
  0
LINE
  5
135
330
1F
100
AcDbEntity
  8
0
  6
Continuous
 62
     7
100
AcDbLine
 10
7.6098580266
 20
9.2952598074
 30
0.0
 11
8.6238295389
 21
9.2952598074
 31
0.0
  0
LINE
  5
136
330
1F
100
AcDbEntity
  8
0
  6
Continuous
 62
     7
100
AcDbLine
 10
15.9932296368
 20
11.6962798396
 30
0.0
 11
16.1904336937
 21
11.6962798396
 31
0.0
  0
LINE
  5
137
330
1F
100
AcDbEntity
  8
0
  6
Continuous
 62
     7
100
AcDbLine
 10
16.1904336937
 20
11.6962798396
 30
0.0
 11
16.1904336937
 21
7.9870524986
 31
0.0
  0
LINE
  5
138
330
1F
100
AcDbEntity
  8
0
  6
Continuous
 62
     7
100
AcDbLine
 10
16.1904336937
 20
7.9870524986
 30
0.0
 11
15.0502454487
 21
7.9870524986
 31
0.0
  0
LINE
  5
139
330
1F
100
AcDbEntity
  8
0
  6
Continuous
 62
     7
100
AcDbLine
 10
15.0502454487
 20
7.9870524986
 30
0.0
 11
14.9146113978
 21
8.1952787913
 31
0.0
  0
LINE
  5
13A
330
1F
100
AcDbEntity
  8
0
  6
Continuous
 62
     7
100
AcDbLine
 10
13.8159017828
 20
10.0224483865
 30
0.0
 11
13.8159017828
 21
7.9870554903
 31
0.0
  0
LINE
  5
13B
330
1F
100
AcDbEntity
  8
0
  6
Continuous
 62
     7
100
AcDbLine
 10
13.8159017828
 20
7.9870554903
 30
0.0
 11
9.8816423761
 21
7.9870554903
 31
0.0
  0
LINE
  5
13C
330
1F
100
AcDbEntity
  8
0
  6
Continuous
 62
     7
100
AcDbLine
 10
9.8816423761
 20
7.9870554903
 30
0.0
 11
9.8816423761
 21
8.1952787913
 31
0.0
  0
LINE
  5
13D
330
1F
100
AcDbEntity
  8
0
  6
Continuous
 62
     7
100
AcDbLine
 10
12.4941225878
 20
10.2697069863
 30
0.0
 11
12.6438475872
 21
10.2697069863
 31
0.0
  0
LINE
  5
13E
330
1F
100
AcDbEntity
  8
0
  6
Continuous
 62
     7
100
AcDbLine
 10
10.9473395009
 20
10.4767176855
 30
0.0
 11
10.9473395009
 21
10.7407457558
 31
0.0
  0
LINE
  5
13F
330
1F
100
AcDbEntity
  8
0
  6
Continuous
 62
     7
100
AcDbLine
 10
10.9473395009
 20
10.7407457558
 30
0.0
 11
12.6438475872
 21
10.7407457558
 31
0.0
  0
LINE
  5
140
330
1F
100
AcDbEntity
  8
0
  6
Continuous
 62
     7
100
AcDbLine
 10
10.9473395009
 20
9.123246783
 30
0.0
 11
10.9473395009
 21
9.3652673833
 31
0.0
  0
LINE
  5
141
330
1F
100
AcDbEntity
  8
0
  6
Continuous
 62
     7
100
AcDbLine
 10
10.9473395009
 20
9.3652673833
 30
0.0
 11
12.6438475872
 21
9.3652673833
 31
0.0
  0
LINE
  5
142
330
1F
100
AcDbEntity
  8
0
  6
Continuous
 62
     7
100
AcDbLine
 10
14.9611514904
 20
9.935704433
 30
0.0
 11
13.9353764537
 21
11.6962798396
 31
0.0
  0
LINE
  5
143
330
1F
100
AcDbEntity
  8
0
  6
Continuous
 62
     7
100
AcDbLine
 10
13.9353764537
 20
11.6962798396
 30
0.0
 11
13.8257812741
 21
11.6962798396
 31
0.0
  0
SPLINE
  5
144
330
1F
100
AcDbEntity
  8
0
  6
Continuous
 62
     7
100
AcDbSpline
210
0.0
220
0.0
230
1.0
 70
     8
 71
     3
 72
    15
 73
    11
 74
     0
 42
0.00000001
 43
0.00000001
 40
0.0
 40
0.0
 40
0.0
 40
0.0
 40
0.087021264620156
 40
0.1765613100060359
 40
0.3143816631225678
 40
0.4366698979355814
 40
0.5601715946404261
 40
0.70689716077137
 40
0.8528718118353485
 40
1.0
 40
1.0
 40
1.0
 40
1.0
 10
23.62992819838637
 20
6.845756800019102
 30
0.0
 10
23.63624001731578
 20
6.88121881422259
 30
0.0
 10
23.64904634716586
 20
6.953169270361675
 30
0.0
 10
23.70773614346403
 20
7.069596395937379
 30
0.0
 10
23.75241334463054
 20
7.206569136793186
 30
0.0
 10
23.82332976231986
 20
7.348210887370866
 30
0.0
 10
23.90754775040555
 20
7.486134449867856
 30
0.0
 10
23.99195080467268
 20
7.635069595477459
 30
0.0
 10
24.08883775059499
 20
7.788913311583237
 30
0.0
 10
24.17190352715526
 20
7.876814587702931
 30
0.0
 10
24.21359987249251
 20
7.920938198128842
 30
0.0
  0
SPLINE
  5
145
330
1F
100
AcDbEntity
  8
0
  6
Continuous
 62
     7
100
AcDbSpline
210
0.0
220
0.0
230
1.0
 70
     8
 71
     3
 72
    12
 73
     8
 74
     0
 42
0.00000001
 43
0.00000001
 40
0.0
 40
0.0
 40
0.0
 40
0.0
 40
0.1865759350697182
 40
0.3733196993942328
 40
0.5599447381088508
 40
0.7800163764870152
 40
1.0
 40
1.0
 40
1.0
 40
1.0
 10
24.21358438927358
 20
9.68625404931876
 30
0.0
 10
24.20847134152773
 20
9.59280920827757
 30
0.0
 10
24.19824064673447
 20
9.405835470456543
 30
0.0
 10
24.12122515713315
 20
9.134805851555534
 30
0.0
 10
24.00598527340038
 20
8.860081966374636
 30
0.0
 10
23.82873409778108
 20
8.599913497795095
 30
0.0
 10
23.6961891763238
 20
8.424401945135282
 30
0.0
 10
23.62992997066151
 20
8.33666372072099
 30
0.0
  0
SPLINE
  5
146
330
1F
100
AcDbEntity
  8
0
  6
Continuous
 62
     7
100
AcDbSpline
210
0.0
220
0.0
230
1.0
 70
     8
 71
     3
 72
    16
 73
    12
 74
     0
 42
0.00000001
 43
0.00000001
 40
0.0
 40
0.0
 40
0.0
 40
0.0
 40
0.1209767993211796
 40
0.250857365265548
 40
0.3734420011180315
 40
0.4931651592976223
 40
0.6227470866511243
 40
0.7514589268942911
 40
0.8709568292538864
 40
0.9316292302023127
 40
1.0
 40
1.0
 40
1.0
 40
1.0
 10
21.89861507866326
 20
5.334920481819307
 30
0.0
 10
21.89601761877279
 20
5.300049115637886
 30
0.0
 10
21.89063152864508
 20
5.227739886987716
 30
0.0
 10
21.8510094819891
 20
5.12638565041202
 30
0.0
 10
21.77955806715968
 20
5.040462452807228
 30
0.0
 10
21.67123560588213
 20
5.01137881765801
 30
0.0
 10
21.56258863684982
 20
5.021061863138246
 30
0.0
 10
21.4555048004677
 20
5.041558208600308
 30
0.0
 10
21.37477268387799
 20
5.085700566670162
 30
0.0
 10
21.33236430242887
 20
5.146349640533697
 30
0.0
 10
21.32862170086142
 20
5.183880474682807
 30
0.0
 10
21.3266387633008
 20
5.203765386120486
 30
0.0
  0
SPLINE
  5
147
330
1F
100
AcDbEntity
  8
0
  6
Continuous
 62
     7
100
AcDbSpline
210
0.0
220
0.0
230
1.0
 70
     8
 71
     3
 72
    16
 73
    12
 74
     0
 42
0.00000001
 43
0.00000001
 40
0.0
 40
0.0
 40
0.0
 40
0.0
 40
0.0697511623638461
 40
0.1317550379718227
 40
0.2510945211934331
 40
0.3731383400386577
 40
0.5001554728303352
 40
0.6231245610493633
 40
0.733948048850608
 40
0.8499321899356457
 40
0.9999999999999999
 40
0.9999999999999999
 40
0.9999999999999999
 40
0.9999999999999999
 10
21.32663576621709
 20
11.10951001968178
 30
0.0
 10
21.32845774364677
 20
11.12944096910131
 30
0.0
 10
21.331899330816
 20
11.1670891302013
 30
0.0
 10
21.37097047851275
 20
11.22908731673621
 30
0.0
 10
21.44698015724051
 20
11.27616704213786
 30
0.0
 10
21.55100961636921
 20
11.29471360691102
 30
0.0
 10
21.65671502181161
 20
11.28903512901298
 30
0.0
 10
21.75723433612268
 20
11.26635191108084
 30
0.0
 10
21.84346653876893
 20
11.21079907399007
 30
0.0
 10
21.89353225062084
 20
11.1113301075351
 30
0.0
 10
21.89678562682434
 20
11.03551858944715
 30
0.0
 10
21.89862070843177
 20
10.99275675872964
 30
0.0
  0
SPLINE
  5
148
330
1F
100
AcDbEntity
  8
0
  6
Continuous
 62
     7
100
AcDbSpline
210
0.0
220
0.0
230
1.0
 70
     8
 71
     3
 72
    27
 73
    23
 74
     0
 42
0.00000001
 43
0.00000001
 40
0.0
 40
0.0
 40
0.0
 40
0.0
 40
0.0842471267147892
 40
0.1684386519403962
 40
0.2526497124711992
 40
0.3368343281249699
 40
0.4211454941956536
 40
0.4602531435203344
 40
0.4811595560197102
 40
0.4913748072357659
 40
0.5010176825491082
 40
0.5073339893805703
 40
0.5114695012134467
 40
0.5170090825802275
 40
0.5294696549736415
 40
0.5703693872195628
 40
0.6331562568535228
 40
0.6901360103070188
 40
0.748561994681546
 40
0.8323679860347147
 40
0.9181783145918538
 40
1.0
 40
1.0
 40
1.0
 40
1.0
 10
26.09260438934086
 20
9.76521218323208
 30
0.0
 10
26.07961239011041
 20
9.870736053098373
 30
0.0
 10
26.05363696612002
 20
10.08171414909903
 30
0.0
 10
25.9601727539511
 20
10.38674947477298
 30
0.0
 10
25.85826112847473
 20
10.68857976081429
 30
0.0
 10
25.7071964439941
 20
10.97032744636033
 30
0.0
 10
25.58308982912283
 20
11.1982373866906
 30
0.0
 10
25.47972082696934
 20
11.35218138060775
 30
0.0
 10
25.45816731101559
 20
11.43655253658313
 30
0.0
 10
25.44907168701082
 20
11.49065525934938
 30
0.0
 10
25.4163411681757
 20
11.50676361518347
 30
0.0
 10
25.38661700849638
 20
11.50167268151524
 30
0.0
 10
25.3823897982164
 20
11.4793720574098
 30
0.0
 10
25.39108519413345
 20
11.45298150817891
 30
0.0
 10
25.41739987623561
 20
11.38350938785172
 30
0.0
 10
25.47479689717589
 20
11.248893203706
 30
0.0
 10
25.57224749764419
 20
11.07114671538701
 30
0.0
 10
25.69061690691805
 20
10.88047266046312
 30
0.0
 10
25.80303287728142
 20
10.65554815428821
 30
0.0
 10
25.89769019804018
 20
10.3837022547518
 30
0.0
 10
25.97635465214544
 20
10.07640542290583
 30
0.0
 10
26.00632763091709
 20
9.867284653681235
 30
0.0
 10
26.02095753114788
 20
9.765212183232078
 30
0.0
  0
SPLINE
  5
149
330
1F
100
AcDbEntity
  8
0
  6
Continuous
 62
     7
100
AcDbSpline
210
0.0
220
0.0
230
1.0
 70
     8
 71
     3
 72
    22
 73
    18
 74
     0
 42
0.00000001
 43
0.00000001
 40
0.0
 40
0.0
 40
0.0
 40
0.0
 40
0.0827732372111449
 40
0.1657106914944932
 40
0.2493699515525471
 40
0.3738132634900889
 40
0.4365411231337922
 40
0.4685627814693796
 40
0.5010871993515335
 40
0.5308775818897614
 40
0.5630206482832302
 40
0.625481215253466
 40
0.6881266745052741
 40
0.7504612198313126
 40
0.8334300009907094
 40
0.9166097174119874
 40
1.0
 40
1.0
 40
1.0
 40
1.0
 10
25.86107554398184
 20
5.158379137532526
 30
0.0
 10
25.85898935701664
 20
5.105391605663486
 30
0.0
 10
25.85481284421809
 20
4.999311417882422
 30
0.0
 10
25.90196386399391
 20
4.846154298191708
 30
0.0
 10
25.95941095427428
 20
4.670390046904268
 30
0.0
 10
26.00061941331875
 20
4.504300617107551
 30
0.0
 10
26.05882165276748
 20
4.373225978853299
 30
0.0
 10
26.12084431334985
 20
4.320165940161952
 30
0.0
 10
26.1794280705459
 20
4.295295464250698
 30
0.0
 10
26.24057102168136
 20
4.318075798516126
 30
0.0
 10
26.28924472074926
 20
4.382196540118456
 30
0.0
 10
26.33372985220213
 20
4.47233769707315
 30
0.0
 10
26.36331980013192
 20
4.588206419371001
 30
0.0
 10
26.39776026846076
 20
4.715800042703225
 30
0.0
 10
26.43690885518512
 20
4.855596129767159
 30
0.0
 10
26.48506237922915
 20
5.007544456085854
 30
0.0
 10
26.49368171876467
 20
5.11347460763545
 30
0.0
 10
26.49799683651613
 20
5.166506638162262
 30
0.0
  0
SPLINE
  5
14A
330
1F
100
AcDbEntity
  8
0
  6
Continuous
 62
     7
100
AcDbSpline
210
0.0
220
0.0
230
1.0
 70
     8
 71
     3
 72
    18
 73
    14
 74
     0
 42
0.00000001
 43
0.00000001
 40
0.0
 40
0.0
 40
0.0
 40
0.0
 40
0.0316224076224119
 40
0.0624429317968962
 40
0.1254695791961263
 40
0.1874697144433538
 40
0.2502818690554669
 40
0.375399680222606
 40
0.5000081008428614
 40
0.6250502214594429
 40
0.7501810337763563
 40
0.8750877991156478
 40
1.0
 40
1.0
 40
1.0
 40
1.0
 10
25.27970967330332
 20
11.89355881581837
 30
0.0
 10
25.25737545476473
 20
11.87635936065425
 30
0.0
 10
25.21327337052136
 20
11.84239659543469
 30
0.0
 10
25.18513121743199
 20
11.73262552399679
 30
0.0
 10
25.18358875722358
 20
11.59742498529652
 30
0.0
 10
25.22614593644228
 20
11.43803660016034
 30
0.0
 10
25.32527615307394
 20
11.24524864913536
 30
0.0
 10
25.45167155399096
 20
11.00602330017448
 30
0.0
 10
25.59029963764816
 20
10.7121557092977
 30
0.0
 10
25.70270179927651
 20
10.40712342754817
 30
0.0
 10
25.78964699428536
 20
10.09388264166845
 30
0.0
 10
25.8496266622727
 20
9.773652345443073
 30
0.0
 10
25.85726918222952
 20
9.557133342197849
 30
0.0
 10
25.86109052535066
 20
9.448871485071937
 30
0.0
  0
SPLINE
  5
14B
330
1F
100
AcDbEntity
  8
0
  6
Continuous
 62
     7
100
AcDbSpline
210
0.0
220
0.0
230
1.0
 70
     8
 71
     3
 72
    18
 73
    14
 74
     0
 42
0.00000001
 43
0.00000001
 40
0.0
 40
0.0
 40
0.0
 40
0.0
 40
0.1243823251727619
 40
0.2498298008686116
 40
0.3747815818042796
 40
0.4995603915212358
 40
0.6243737389250829
 40
0.7493124888103361
 40
0.811928851665846
 40
0.8737318072007741
 40
0.9375620416115201
 40
0.9685350742720182
 40
1.0
 40
1.0
 40
1.0
 40
1.0
 10
26.49799106627938
 20
9.594019270864644
 30
0.0
 10
26.49577445395164
 20
9.697264739378818
 30
0.0
 10
26.49132224729227
 20
9.90463982103657
 30
0.0
 10
26.58840025719394
 20
10.20138994479602
 30
0.0
 10
26.68565339957073
 20
10.49411738382934
 30
0.0
 10
26.80515746419823
 20
10.77926184408061
 30
0.0
 10
26.94196700277567
 20
11.05633690204772
 30
0.0
 10
27.06424299268477
 20
11.28197149193904
 30
0.0
 10
27.17504827827337
 20
11.45762420674169
 30
0.0
 10
27.19633445820013
 20
11.616533810257
 30
0.0
 10
27.17401520335292
 20
11.742519449633
 30
0.0
 10
27.14438094796851
 20
11.84647947693327
 30
0.0
 10
27.10164423832119
 20
11.87778349735738
 30
0.0
 10
27.08010754126031
 20
11.89355881581837
 30
0.0
  0
SPLINE
  5
14C
330
1F
100
AcDbEntity
  8
0
  6
Continuous
 62
     7
100
AcDbSpline
210
0.0
220
0.0
230
1.0
 70
     8
 71
     3
 72
    15
 73
    11
 74
     0
 42
0.00000001
 43
0.00000001
 40
0.0
 40
0.0
 40
0.0
 40
0.0
 40
0.1226406175040117
 40
0.2543658963480981
 40
0.3477373107975249
 40
0.4336378262122745
 40
0.5781478668789461
 40
0.7259020705533594
 40
0.8638703656776252
 40
1.0
 40
1.0
 40
1.0
 40
1.0
 10
6.072169213783084
 20
9.778146264495769
 30
0.0
 10
6.078215091937728
 20
9.796397420099986
 30
0.0
 10
6.090754699510784
 20
9.834251694231506
 30
0.0
 10
6.061378796129558
 20
9.883163689936614
 30
0.0
 10
6.023687201912882
 20
9.913309318969857
 30
0.0
 10
5.971308497551454
 20
9.912658934380985
 30
0.0
 10
5.925922449023091
 20
9.8718785128046
 30
0.0
 10
5.897870280625352
 20
9.812845419704336
 30
0.0
 10
5.899294144791252
 20
9.744790999197592
 30
0.0
 10
5.92711590659008
 20
9.712983682122191
 30
0.0
 10
5.940933472696927
 20
9.697186706015911
 30
0.0
  0
ENDSEC
  0
SECTION
  2
OBJECTS
  0
DICTIONARY
  5
C
330
0
100
AcDbDictionary
281
     1
  3
ACAD_GROUP
350
D
  3
ACAD_LAYOUT
350
1A
  3
ACAD_MLINESTYLE
350
17
  3
ACAD_PLOTSETTINGS
350
19
  3
ACAD_PLOTSTYLENAME
350
E
  3
ACAD_SCALELIST
350
47
  3
DWGPROPS
350
14D
  0
DICTIONARY
  5
D
102
{ACAD_REACTORS
330
C
102
}
330
C
100
AcDbDictionary
281
     1
  0
DICTIONARY
  5
1A
102
{ACAD_REACTORS
330
C
102
}
330
C
100
AcDbDictionary
281
     1
  3
Layout1
350
1E
  3
Layout2
350
26
  3
Model
350
22
  0
DICTIONARY
  5
17
102
{ACAD_REACTORS
330
C
102
}
330
C
100
AcDbDictionary
281
     1
  3
Standard
350
18
  0
DICTIONARY
  5
19
102
{ACAD_REACTORS
330
C
102
}
330
C
100
AcDbDictionary
281
     1
  0
ACDBDICTIONARYWDFLT
  5
E
102
{ACAD_REACTORS
330
C
102
}
330
C
100
AcDbDictionary
281
     1
  3
Normal
350
F
100
AcDbDictionaryWithDefault
340
F
  0
DICTIONARY
  5
47
102
{ACAD_REACTORS
330
C
102
}
330
C
100
AcDbDictionary
281
     1
  3
A0
350
48
  3
A1
350
49
  3
A2
350
4A
  3
A3
350
4B
  3
A4
350
4C
  3
A5
350
4D
  3
A6
350
4E
  3
A7
350
4F
  3
A8
350
50
  3
A9
350
51
  3
B1
350
52
  3
B2
350
53
  3
B3
350
54
  3
B4
350
55
  3
B5
350
56
  3
B6
350
57
  3
B7
350
58
  0
XRECORD
  5
14D
102
{ACAD_REACTORS
330
C
102
}
330
C
100
AcDbXrecord
280
     1
  1
DWGPROPS COOKIE
  2

  3

  4

  6

  7

  8
maver
  9

300
=
301
=
302
=
303
=
304
=
305
=
306
=
307
=
308
=
309
=
 40
0.0
 41
2461138.881712176
 42
2461138.881744028
  1

 90
        0
  0
LAYOUT
  5
1E
102
{ACAD_REACTORS
330
1A
102
}
330
1A
100
AcDbPlotSettings
  1

  2
none_device
  4

  6

 40
0.0
 41
0.0
 42
0.0
 43
0.0
 44
0.0
 45
0.0
 46
0.0
 47
0.0
 48
0.0
 49
0.0
140
0.0
141
0.0
142
1.0
143
1.0
 70
   688
 72
     0
 73
     0
 74
     5
  7

 75
    16
147
1.0
148
0.0
149
0.0
100
AcDbLayout
  1
Layout1
 70
     1
 71
     1
 10
0.0
 20
0.0
 11
12.0
 21
9.0
 12
0.0
 22
0.0
 32
0.0
 14
1.0000000000E+20
 24
1.0000000000E+20
 34
1.0000000000E+20
 15
-1.0000000000E+20
 25
-1.0000000000E+20
 35
-1.0000000000E+20
146
0.0
 13
0.0
 23
0.0
 33
0.0
 16
1.0
 26
0.0
 36
0.0
 17
0.0
 27
1.0
 37
0.0
 76
     0
330
1B
  0
LAYOUT
  5
26
102
{ACAD_REACTORS
330
1A
102
}
330
1A
100
AcDbPlotSettings
  1

  2
none_device
  4

  6

 40
0.0
 41
0.0
 42
0.0
 43
0.0
 44
0.0
 45
0.0
 46
0.0
 47
0.0
 48
0.0
 49
0.0
140
0.0
141
0.0
142
1.0
143
1.0
 70
   688
 72
     0
 73
     0
 74
     5
  7

 75
    16
147
1.0
148
0.0
149
0.0
100
AcDbLayout
  1
Layout2
 70
     1
 71
     2
 10
0.0
 20
0.0
 11
0.0
 21
0.0
 12
0.0
 22
0.0
 32
0.0
 14
0.0
 24
0.0
 34
0.0
 15
0.0
 25
0.0
 35
0.0
146
0.0
 13
0.0
 23
0.0
 33
0.0
 16
1.0
 26
0.0
 36
0.0
 17
0.0
 27
1.0
 37
0.0
 76
     0
330
23
  0
LAYOUT
  5
22
102
{ACAD_REACTORS
330
1A
102
}
330
1A
100
AcDbPlotSettings
  1

  2
none_device
  4
ANSI_A_(11.00_x_8.50_Inches)
  6

 40
6.35
 41
19.05
 42
6.35000508
 43
19.05000254
 44
279.4
 45
215.9
 46
-31.4411466641
 47
-2.163130815
 48
0.0
 49
0.0
140
0.0
141
0.0
142
0.4388965333
143
1.0
 70
  1696
 72
     0
 73
     0
 74
     0
  7

 75
     0
147
0.5913241897
148
-39.4088153714
149
0.0
100
AcDbLayout
  1
Model
 70
     1
 71
     0
 10
0.0
 20
0.0
 11
12.0
 21
9.0
 12
0.0
 22
0.0
 32
0.0
 14
2.3760504826
 24
4.2173710417
 34
0.0
 15
27.1882765383
 25
12.1197941362
 35
0.0
146
0.0
 13
0.0
 23
0.0
 33
0.0
 16
1.0
 26
0.0
 36
0.0
 17
0.0
 27
1.0
 37
0.0
 76
     0
330
1F
331
29
  0
MLINESTYLE
  5
18
102
{ACAD_REACTORS
330
17
102
}
330
17
100
AcDbMlineStyle
  2
Standard
 70
     0
  3

 62
   256
 51
90.0
 52
90.0
 71
     2
 49
0.5
 62
   256
  6
BYLAYER
 49
-0.5
 62
   256
  6
BYLAYER
  0
ACDBPLACEHOLDER
  5
F
102
{ACAD_REACTORS
330
E
102
}
330
E
  0
SCALE
  5
48
102
{ACAD_REACTORS
330
47
102
}
330
47
100
AcDbScale
 70
     0
300
1:1
140
1.0
141
1.0
290
     1
  0
SCALE
  5
49
102
{ACAD_REACTORS
330
47
102
}
330
47
100
AcDbScale
 70
     0
300
1/128" = 1'-0"
140
0.0078125
141
12.0
290
     0
  0
SCALE
  5
4A
102
{ACAD_REACTORS
330
47
102
}
330
47
100
AcDbScale
 70
     0
300
1/64" = 1'-0"
140
0.015625
141
12.0
290
     0
  0
SCALE
  5
4B
102
{ACAD_REACTORS
330
47
102
}
330
47
100
AcDbScale
 70
     0
300
1/32" = 1'-0"
140
0.03125
141
12.0
290
     0
  0
SCALE
  5
4C
102
{ACAD_REACTORS
330
47
102
}
330
47
100
AcDbScale
 70
     0
300
1/16" = 1'-0"
140
0.0625
141
12.0
290
     0
  0
SCALE
  5
4D
102
{ACAD_REACTORS
330
47
102
}
330
47
100
AcDbScale
 70
     0
300
3/32" = 1'-0"
140
0.09375
141
12.0
290
     0
  0
SCALE
  5
4E
102
{ACAD_REACTORS
330
47
102
}
330
47
100
AcDbScale
 70
     0
300
1/8" = 1'-0"
140
0.125
141
12.0
290
     0
  0
SCALE
  5
4F
102
{ACAD_REACTORS
330
47
102
}
330
47
100
AcDbScale
 70
     0
300
3/16" = 1'-0"
140
0.1875
141
12.0
290
     0
  0
SCALE
  5
50
102
{ACAD_REACTORS
330
47
102
}
330
47
100
AcDbScale
 70
     0
300
1/4" = 1'-0"
140
0.25
141
12.0
290
     0
  0
SCALE
  5
51
102
{ACAD_REACTORS
330
47
102
}
330
47
100
AcDbScale
 70
     0
300
3/8" = 1'-0"
140
0.375
141
12.0
290
     0
  0
SCALE
  5
52
102
{ACAD_REACTORS
330
47
102
}
330
47
100
AcDbScale
 70
     0
300
1/2" = 1'-0"
140
0.5
141
12.0
290
     0
  0
SCALE
  5
53
102
{ACAD_REACTORS
330
47
102
}
330
47
100
AcDbScale
 70
     0
300
3/4" = 1'-0"
140
0.75
141
12.0
290
     0
  0
SCALE
  5
54
102
{ACAD_REACTORS
330
47
102
}
330
47
100
AcDbScale
 70
     0
300
1" = 1'-0"
140
1.0
141
12.0
290
     0
  0
SCALE
  5
55
102
{ACAD_REACTORS
330
47
102
}
330
47
100
AcDbScale
 70
     0
300
1-1/2" = 1'-0"
140
1.5
141
12.0
290
     0
  0
SCALE
  5
56
102
{ACAD_REACTORS
330
47
102
}
330
47
100
AcDbScale
 70
     0
300
3" = 1'-0"
140
3.0
141
12.0
290
     0
  0
SCALE
  5
57
102
{ACAD_REACTORS
330
47
102
}
330
47
100
AcDbScale
 70
     0
300
6" = 1'-0"
140
6.0
141
12.0
290
     0
  0
SCALE
  5
58
102
{ACAD_REACTORS
330
47
102
}
330
47
100
AcDbScale
 70
     0
300
1'-0" = 1'-0"
140
12.0
141
12.0
290
     0
  0
ENDSEC
  0
EOF
